<?xml version="1.0" encoding="UTF-8"?><svg id="Layer_2" xmlns="http://www.w3.org/2000/svg" viewBox="0 0 33.5 40"><defs><style>.cls-1{fill:#fff;stroke:#fff;stroke-miterlimit:10;}</style></defs><g id="Layer_1-2"><g><path class="cls-1" d="M16.76,32.12h-4.38c-.65,0-.8-.2-.83-.85-.05-.82-.1-1.65-.25-2.45-.2-1.07-.74-1.96-1.53-2.74-4.38-4.29-3.91-11.46,.99-15.14,5.53-4.16,13.56-1.61,15.57,5.01,1.14,3.73,.31,7.12-2.4,9.91-1.46,1.5-1.91,3.22-1.96,5.18v.38c-.03,.5-.24,.7-.75,.71h-4.46Zm-3.97-1.27c.07,0,.14,.02,.2,.02h7.46c.22,0,.33-.06,.32-.3,0-.11,0-.23,.01-.34,.16-1.99,.79-3.73,2.24-5.22,2.45-2.51,3.13-5.58,2.04-8.9-1.1-3.34-3.51-5.35-6.99-5.93-2.69-.45-5.12,.27-7.17,2.09-2.16,1.91-3.14,4.35-2.95,7.23,.14,2.12,.94,3.99,2.45,5.46,1.17,1.14,1.87,2.48,2.14,4.06,.1,.6,.15,1.2,.23,1.81l.02,.02Z"/><path class="cls-1" d="M16.7,35.84c-1.33,0-2.66,0-3.99,0-.74,0-1.35-.56-1.45-1.26-.1-.74,.29-1.42,.99-1.64,.21-.07,.45-.1,.67-.1,2.55,0,5.1,0,7.65,0,1.21,0,1.97,.97,1.6,2-.22,.62-.8,1.01-1.55,1.01h-3.92Zm.02-1.84c-1.29,0-2.59,0-3.88,0-.13,0-.34,.15-.37,.26-.06,.24,.15,.31,.36,.32h7.61c.11,0,.24,.02,.34-.03,.09-.05,.21-.17,.21-.27,0-.09-.11-.22-.2-.28-.09-.05-.22-.03-.34-.03h-3.73v.02Z"/><path class="cls-1" d="M16.73,39.49c-.94,0-1.88,0-2.82,0-.74,0-1.31-.51-1.46-1.21-.14-.65,.2-1.36,.82-1.64,.24-.1,.51-.16,.77-.16,1.79,0,3.58,0,5.37,0,.98,0,1.66,.65,1.64,1.52-.01,.87-.7,1.5-1.67,1.5h-2.65Zm0-1.85h-2.63c-.22,0-.47-.02-.47,.3,0,.27,.24,.29,.45,.29h5.29c.21,0,.45,0,.45-.29,0-.31-.25-.29-.47-.29h-2.62Z"/><path class="cls-1" d="M7.18,3.2c.22,.17,.43,.28,.54,.45,.73,1.1,1.43,2.21,2.14,3.33,.23,.37,.16,.74-.15,.94-.31,.21-.64,.11-.9-.28-.71-1.1-1.41-2.2-2.11-3.3-.15-.24-.25-.5-.06-.74,.12-.15,.32-.24,.54-.4Z"/><path class="cls-1" d="M16.14,3.18V1.24c0-.45,.24-.74,.6-.74s.61,.29,.61,.73v3.92c0,.46-.24,.73-.6,.73s-.61-.28-.61-.72v-1.98Z"/><path class="cls-1" d="M28.65,13.04c-.14-.11-.39-.22-.44-.39-.06-.19,.03-.45,.1-.67,.02-.08,.15-.13,.24-.18,1.15-.62,2.3-1.24,3.45-1.86,.39-.21,.77-.13,.93,.18,.17,.32,.04,.67-.35,.88-1.16,.63-2.32,1.26-3.48,1.88-.11,.06-.24,.08-.44,.16h-.01Z"/><path class="cls-1" d="M5.34,12.25c0,.64-.46,.88-.93,.64-.6-.31-1.18-.64-1.77-.96-.57-.31-1.14-.61-1.7-.93-.42-.24-.54-.53-.35-.86,.18-.32,.54-.41,.93-.2,1.15,.62,2.3,1.24,3.43,1.88,.19,.11,.32,.35,.4,.44h-.01Z"/><path class="cls-1" d="M24.4,8.17c-.52-.02-.8-.42-.66-.79,.04-.12,.11-.23,.18-.33,.69-1.05,1.39-2.09,2.09-3.14,.04-.06,.08-.13,.13-.18,.23-.27,.55-.31,.81-.11,.27,.21,.31,.48,.14,.77-.16,.27-.35,.53-.52,.8-.58,.87-1.15,1.74-1.74,2.59-.13,.18-.34,.3-.44,.39h.01Z"/><path class="cls-1" d="M16.72,34h3.73c.11,0,.25-.02,.34,.03s.2,.18,.2,.28c0,.09-.11,.21-.21,.27-.09,.05-.22,.03-.34,.03h-7.61c-.21,0-.42-.08-.36-.32,.03-.11,.24-.26,.37-.26,1.29-.02,2.59,0,3.88,0v-.02Z"/><path class="cls-1" d="M16.74,37.65h2.63c.22,0,.47,0,.47,.29,0,.27-.23,.29-.45,.29h-5.29c-.21,0-.44,0-.45-.29,0-.31,.25-.3,.47-.3h2.62Z"/><path class="cls-1" d="M24.52,18.94v.24c-.01,.38-.22,.63-.55,.66-.34,.03-.61-.2-.66-.6-.04-.3-.04-.61-.08-.91-.46-3.18-3.04-5.51-6.26-5.65h-.15c-.42-.03-.69-.28-.68-.62,0-.35,.3-.63,.71-.58,.78,.09,1.59,.14,2.31,.39,3.11,1.09,4.88,3.32,5.33,6.59,.02,.14,.01,.28,.02,.49h.01Z"/></g></g></svg>