<svg xmlns="http://www.w3.org/2000/svg" xmlns:v="https://vecta.io/nano" viewBox="-0.03 -0.02 1020.8 217.19"><defs><clipPath id="A"><path d="M0 0h1250v217.16H0z" fill="none"/></clipPath></defs><g clip-path="url(#A)"><path d="M949.43 117.13c.9 4.02 2.4 7.69 4.51 11.02 2.1 3.32 4.84 6.03 8.21 8.13 3.36 2.1 7.45 3.15 12.27 3.15s9.05-1.05 12.36-3.15 6.01-4.81 8.12-8.13c2.1-3.32 3.61-7 4.51-11.02s1.35-8.02 1.35-11.98-.45-7.95-1.35-11.98c-.9-4.02-2.41-7.69-4.51-11.02-2.11-3.32-4.81-6.03-8.12-8.13s-7.43-3.15-12.36-3.15-8.9 1.05-12.27 3.15-6.11 4.81-8.21 8.13c-2.11 3.32-3.61 7-4.51 11.02s-1.35 8.01-1.35 11.98.45 7.96 1.35 11.98m66.29 28.42c0 2.71-.84 4.64-2.52 5.82-1.69 1.18-3.31 1.76-4.87 1.76-1.69 0-3.34-.59-4.96-1.76-1.62-1.18-2.44-3.11-2.44-5.82v-6.53h-.36c-3.49 4.82-7.43 8.38-11.82 10.67s-9.17 3.44-14.34 3.44c-6.74 0-12.72-1.32-17.95-3.97-5.23-2.64-9.65-6.2-13.26-10.67s-6.35-9.59-8.21-15.35c-1.87-5.76-2.8-11.76-2.8-17.99s.93-12.23 2.8-17.99c1.86-5.76 4.6-10.88 8.21-15.35s8.03-8.03 13.26-10.67 11.21-3.97 17.95-3.97c5.53 0 10.34 1.11 14.43 3.34s8 5.38 11.72 9.47h.36v-5.05c0-2.76.81-4.75 2.44-5.95 1.62-1.2 3.28-1.8 4.96-1.8 1.56 0 3.18.59 4.87 1.76 1.68 1.18 2.52 3.12 2.52 5.82v80.8zM836.78 22.29c0-2.62.72-4.68 2.16-6.17s3.36-2.24 5.77-2.24 4.33.77 5.77 2.3 2.16 3.65 2.16 6.35v47.64h.36c1.08-1.44 2.4-2.95 3.97-4.51 1.56-1.56 3.43-2.98 5.59-4.24s4.6-2.28 7.31-3.07c2.71-.78 5.62-1.17 8.75-1.17 6.49 0 12.27 1.32 17.32 3.97a40.05 40.05 0 0 1 12.9 10.67c3.55 4.47 6.22 9.59 8.03 15.35 1.8 5.76 2.71 11.76 2.71 17.99s-.9 12.23-2.71 17.99c-1.8 5.76-4.48 10.88-8.03 15.35s-7.85 8.03-12.9 10.67c-5.05 2.65-10.82 3.97-17.32 3.97-12.51 0-21.05-4.39-25.61-13.17h-.36v4.69c0 2.65-.72 4.72-2.16 6.22-1.44 1.51-3.37 2.25-5.77 2.25s-4.33-.74-5.77-2.24c-1.44-1.49-2.16-3.55-2.16-6.17V22.29zm15.6 94.84c.9 4.02 2.4 7.69 4.51 11.02 2.1 3.32 4.84 6.03 8.21 8.13 3.36 2.1 7.45 3.15 12.27 3.15s9.05-1.05 12.36-3.15 6.01-4.81 8.12-8.13c2.1-3.32 3.61-7 4.51-11.02s1.35-8.02 1.35-11.98-.45-7.95-1.35-11.98c-.9-4.02-2.41-7.69-4.51-11.02-2.11-3.32-4.81-6.03-8.12-8.13s-7.43-3.15-12.36-3.15-8.9 1.05-12.27 3.15-6.11 4.81-8.21 8.13c-2.11 3.32-3.61 7-4.51 11.02s-1.35 8.01-1.35 11.98.45 7.96 1.35 11.98M739.01 65.46c0-2.59.72-4.61 2.16-6.09 1.44-1.47 3.36-2.21 5.77-2.21s4.33.73 5.77 2.2 2.16 3.49 2.16 6.06v49.56c0 16.29 7.4 24.43 22.19 24.43s22.19-8.14 22.19-24.43V65.42c0-2.58.72-4.6 2.16-6.06 1.44-1.47 3.37-2.2 5.77-2.2s4.33.74 5.77 2.21 2.16 3.5 2.16 6.09v50.27c0 6.82-1.08 12.61-3.25 17.38-2.16 4.76-5.02 8.64-8.57 11.64s-7.61 5.15-12.18 6.44-9.26 1.94-14.07 1.94-9.5-.65-14.07-1.94-8.63-3.44-12.18-6.44-6.4-6.88-8.57-11.64c-2.16-4.76-3.25-10.55-3.25-17.38V65.46zm-36.8 28.44c0-4.1-.66-7.62-1.98-10.54-1.32-2.93-3.04-5.3-5.14-7.12a21.02 21.02 0 0 0-7.13-4.04c-2.65-.88-5.29-1.32-7.94-1.32s-5.29.44-7.94 1.32a20.88 20.88 0 0 0-7.12 4.04c-2.11 1.82-3.82 4.19-5.14 7.12s-1.98 6.44-1.98 10.54v50.97c0 2.58-.72 4.6-2.16 6.06-1.44 1.47-3.37 2.2-5.77 2.2s-4.33-.74-5.77-2.24c-1.44-1.49-2.16-3.55-2.16-6.17V22.29c0-2.62.72-4.68 2.16-6.17s3.37-2.24 5.77-2.24 4.33.77 5.77 2.3 2.16 3.65 2.16 6.35v46.91l.36.36c3.49-4.57 7.58-7.82 12.27-9.74s9.44-2.89 14.25-2.89c3.73 0 7.55.62 11.45 1.85 3.91 1.23 7.49 3.26 10.73 6.09 3.25 2.82 5.92 6.5 8.03 11.03 2.1 4.53 3.16 10.08 3.16 16.67v52.04c0 2.59-.72 4.62-2.16 6.09s-3.37 2.2-5.77 2.2-4.33-.73-5.77-2.2c-1.44-1.46-2.16-3.49-2.16-6.06V93.91zm-102.1-57.48c0-2.64.72-4.72 2.16-6.22s3.36-2.25 5.77-2.25 4.33.75 5.77 2.25c1.44 1.51 2.16 3.58 2.16 6.22v20.74h6.49c5.29 0 7.94 2.29 7.94 6.85s-2.65 6.86-7.94 6.86h-6.49v73.89c0 2.61-.72 4.66-2.16 6.14s-3.37 2.22-5.77 2.22-4.33-.74-5.77-2.22-2.16-3.53-2.16-6.14V70.88h-6.49c-5.29 0-7.94-2.28-7.94-6.86s2.64-6.85 7.94-6.85h6.49V36.43zm-92.27 80.71c.9 4.02 2.4 7.69 4.51 11.02 2.1 3.32 4.84 6.03 8.21 8.13s7.46 3.15 12.27 3.15 9.05-1.05 12.36-3.15 6.01-4.81 8.12-8.13c2.1-3.32 3.61-7 4.51-11.02s1.35-8.02 1.35-11.98-.45-7.95-1.35-11.98c-.9-4.02-2.41-7.69-4.51-11.02-2.11-3.32-4.81-6.03-8.12-8.13s-7.43-3.15-12.36-3.15-8.9 1.05-12.27 3.15-6.11 4.81-8.21 8.13c-2.11 3.32-3.61 7-4.51 11.02s-1.35 8.01-1.35 11.98.45 7.96 1.35 11.98m66.29 28.42c0 2.71-.84 4.64-2.53 5.82-1.68 1.18-3.31 1.76-4.87 1.76-1.69 0-3.34-.59-4.96-1.76-1.62-1.18-2.44-3.11-2.44-5.82v-6.53h-.36c-3.49 4.82-7.43 8.38-11.81 10.67-4.39 2.29-9.17 3.44-14.34 3.44-6.74 0-12.72-1.32-17.95-3.97-5.23-2.64-9.65-6.2-13.26-10.67s-6.34-9.59-8.21-15.35-2.8-11.76-2.8-17.99.93-12.23 2.8-17.99c1.86-5.76 4.6-10.88 8.21-15.35s8.03-8.03 13.26-10.67 11.21-3.97 17.95-3.97c5.53 0 10.34 1.11 14.43 3.34s8 5.38 11.72 9.47h.36v-5.05c0-2.76.81-4.75 2.44-5.95 1.62-1.2 3.28-1.8 4.96-1.8 1.56 0 3.19.59 4.87 1.76 1.68 1.18 2.53 3.12 2.53 5.82v80.8zM401.14 92.5c0-6.68-1.8-11.95-5.41-15.82s-8.66-5.8-15.15-5.8-11.52 1.93-15.06 5.8c-3.55 3.87-5.32 9.14-5.32 15.82v52.38c0 2.58-.72 4.6-2.16 6.06-1.44 1.47-3.37 2.2-5.77 2.2s-4.33-.73-5.77-2.2-2.16-3.5-2.16-6.09V65.46c0-2.59.72-4.61 2.16-6.09 1.44-1.47 3.37-2.21 5.77-2.21s4.33.75 5.77 2.26c1.44 1.5 2.16 3.58 2.16 6.22v2.89l.36.36c.96-1.2 2.07-2.49 3.34-3.88 1.26-1.38 2.85-2.64 4.78-3.79 1.92-1.14 4.18-2.1 6.76-2.89 2.58-.78 5.68-1.17 9.29-1.17 4.69 0 9.35 1.15 13.98 3.44s8.75 6.44 12.36 12.43c3.49-4.94 7.51-8.82 12.09-11.64 4.57-2.82 10.34-4.23 17.32-4.23 3.73 0 7.55.62 11.45 1.85 3.91 1.23 7.49 3.26 10.73 6.09 3.25 2.82 5.92 6.5 8.03 11.03 2.1 4.53 3.16 10.08 3.16 16.67v52.04c0 2.59-.72 4.62-2.16 6.09s-3.37 2.2-5.77 2.2-4.33-.73-5.77-2.2c-1.44-1.46-2.16-3.49-2.16-6.06V92.49c0-6.68-1.8-11.95-5.41-15.82s-8.66-5.8-15.15-5.8-11.52 1.93-15.06 5.8c-3.55 3.87-5.32 9.14-5.32 15.82v52.38c0 2.58-.72 4.6-2.16 6.06-1.44 1.47-3.37 2.2-5.77 2.2s-4.33-.73-5.77-2.2c-1.44-1.46-2.16-3.49-2.16-6.06V92.49zM257.1 117.13c.9 4.02 2.4 7.69 4.51 11.02 2.1 3.32 4.84 6.03 8.21 8.13s7.46 3.15 12.27 3.15 9.05-1.05 12.36-3.15 6.01-4.81 8.12-8.13c2.1-3.32 3.61-7 4.51-11.02s1.35-8.02 1.35-11.98-.45-7.95-1.35-11.98c-.9-4.02-2.41-7.69-4.51-11.02-2.11-3.32-4.81-6.03-8.12-8.13s-7.43-3.15-12.36-3.15-8.9 1.05-12.27 3.15-6.1 4.81-8.21 8.13-3.61 7-4.51 11.02-1.35 8.01-1.35 11.98.45 7.96 1.35 11.98m66.29 28.42c0 2.71-.84 4.64-2.53 5.82-1.68 1.18-3.31 1.76-4.87 1.76-1.69 0-3.34-.59-4.96-1.76-1.62-1.18-2.44-3.11-2.44-5.82v-6.53h-.36c-3.49 4.82-7.43 8.38-11.82 10.67s-9.17 3.44-14.34 3.44c-6.74 0-12.72-1.32-17.95-3.97-5.23-2.64-9.65-6.2-13.26-10.67s-6.34-9.59-8.21-15.35-2.8-11.76-2.8-17.99.93-12.23 2.8-17.99c1.86-5.76 4.6-10.88 8.21-15.35s8.03-8.03 13.26-10.67 11.21-3.97 17.95-3.97c5.53 0 10.34 1.11 14.43 3.34s8 5.38 11.73 9.47h.36v-5.05c0-2.76.81-4.75 2.44-5.95 1.62-1.2 3.27-1.8 4.96-1.8 1.56 0 3.19.59 4.87 1.76 1.68 1.18 2.53 3.12 2.53 5.82v80.8z" fill="#fff"/><path d="M6.78 156.78c-2.72 4.22-3.65 7.46-3.96 8.29-6.82 18.28.05 38.88 17.7 47.68 17.07 8.5 37.53 2.68 47.71-12.9 14.57-22.29 44.35-29.34 63.96-14.11-19.24-18.88-37.48-31.71-48.66-36.77-26.23-11.88-53.2-11.66-70.14 1.42-2.42 1.87-4.93 3.78-6.61 6.39" fill="#63c29d"/><path d="M6.78 156.78c-2.72 4.22-3.65 7.46-3.96 8.29-6.82 18.28.05 38.88 17.7 47.68 17.07 8.5 37.53 2.68 47.71-12.9 14.57-22.29 44.35-29.34 63.96-14.11-19.24-18.88-37.48-31.71-48.66-36.77-26.23-11.88-53.2-11.66-70.14 1.42-2.42 1.87-4.93 3.78-6.61 6.39z" fill="none" stroke="#fff" stroke-width=".5" stroke-miterlimit="10"/><path d="M143.85 27.29c-1.47-4.02-3.17-6.5-3.17-6.5-13.57-27.23-52.85-27.59-66.6 0l-31.97 64.4c.13-.25 2.73-5.2 11.72-8.59.02-.01.05-.02.07-.03l.86-.3c.19-.07.38-.14.58-.2.07-.02.15-.05.22-.07 5.43-1.77 12.9-2.94 23.08-2.43 8.47.42 30.18.38 30.18.38 13.22-.79 22.26-6.19 29.92-15.55 8.72-10.69 5.95-24.05 5.11-31.1" fill="#f37167"/><path d="M143.85 27.29c-1.47-4.02-3.17-6.5-3.17-6.5-13.57-27.23-52.85-27.59-66.6 0l-31.97 64.4c.13-.25 2.73-5.2 11.72-8.59.02-.01.05-.02.07-.03l.86-.3c.19-.07.38-.14.58-.2.07-.02.15-.05.22-.07 5.43-1.77 12.9-2.94 23.08-2.43 8.47.42 30.18.38 30.18.38 13.22-.79 22.26-6.19 29.92-15.55 8.72-10.69 5.95-24.05 5.11-31.1z" fill="none" stroke="#fff" stroke-width=".5"/><path d="M211.93 165.07c-2.35-5.59-54.37-110.19-68.09-137.79.83 7.05 3.61 20.41-5.11 31.1-7.65 9.37-16.69 14.76-29.92 15.55 0 0-21.71.04-30.18-.38-30.01-1.5-36.48 11.55-36.54 11.64L6.77 156.77h0c15.83-19.16 46.77-21.39 76.75-7.81 11.05 5 29 17.6 47.98 36.12.52.39 9.38 8.51 15 14.77 15.11 16.81 30.65 21.4 47.71 12.9 17.66-8.81 25.25-29.75 17.71-47.68" fill="#1f376a"/><path d="M211.93 165.07c-2.35-5.59-54.37-110.19-68.09-137.79.83 7.05 3.61 20.41-5.11 31.1-7.65 9.37-16.69 14.76-29.92 15.55 0 0-21.71.04-30.18-.38-30.01-1.5-36.48 11.55-36.54 11.64L6.77 156.77h0c15.83-19.16 46.77-21.39 76.75-7.81 11.05 5 29 17.6 47.98 36.12.52.39 9.38 8.51 15 14.77 15.11 16.81 30.65 21.4 47.71 12.9 17.66-8.81 25.25-29.75 17.71-47.68z" fill="none" stroke="#fff" stroke-width=".5" stroke-miterlimit="10"/><path d="M1019 183.97h-9.59c.1-1.51.61-2.69 1.52-3.52.92-.83 2.02-1.25 3.32-1.25.86 0 1.66.18 2.4.55a4.24 4.24 0 0 1 1.74 1.62c.42.72.63 1.58.61 2.6m1.77.05c0-1.16-.26-2.23-.79-3.18-.52-.96-1.27-1.72-2.25-2.28-.97-.57-2.11-.85-3.41-.85s-2.46.28-3.47.85c-1.02.57-1.81 1.38-2.37 2.45-.57 1.07-.85 2.31-.85 3.72s.29 2.65.86 3.71 1.37 1.87 2.38 2.45c1.02.57 2.16.86 3.45.86 1.65 0 3.02-.42 4.11-1.26a5.76 5.76 0 0 0 2.13-3.26h-1.85c-.25.93-.76 1.67-1.54 2.22-.77.55-1.73.82-2.86.82-.87 0-1.66-.19-2.4-.56-.73-.37-1.32-.93-1.77-1.66s-.7-1.61-.75-2.65h11.31c.03-.32.05-.77.05-1.37m-28.44.7c0 1.42.28 2.65.85 3.71s1.35 1.87 2.35 2.45c1 .57 2.14.86 3.42.86 1.66 0 3.05-.43 4.14-1.27 1.1-.85 1.81-1.97 2.12-3.37h-1.87c-.23 1-.74 1.78-1.51 2.33-.77.56-1.74.84-2.88.84-.92 0-1.74-.21-2.47-.62-.73-.42-1.31-1.04-1.74-1.87-.42-.83-.64-1.85-.64-3.05s.21-2.21.64-3.03c.42-.82 1-1.44 1.74-1.86.73-.42 1.56-.62 2.47-.62 1.15 0 2.11.28 2.88.84s1.28 1.33 1.51 2.31h1.87c-.32-1.43-1.02-2.56-2.11-3.4-1.09-.83-2.48-1.25-4.16-1.25-1.28 0-2.42.29-3.42.86s-1.78 1.39-2.35 2.45-.85 2.29-.85 3.71m-4.94 0c0 1.1-.22 2.06-.67 2.9a4.84 4.84 0 0 1-1.83 1.92c-.77.45-1.63.67-2.56.67s-1.83-.22-2.6-.66c-.76-.44-1.37-1.08-1.81-1.92s-.66-1.82-.66-2.93.22-2.11.66-2.93 1.04-1.45 1.81-1.88 1.63-.65 2.6-.65 1.78.23 2.56.67c.77.45 1.39 1.09 1.83 1.92.45.83.67 1.8.67 2.9m-11.91-.02c0 1.4.28 2.63.84 3.69.56 1.07 1.33 1.89 2.32 2.47s2.1.87 3.33.87c1.3 0 2.42-.3 3.36-.91s1.63-1.38 2.06-2.31v3.02h1.75v-13.63h-1.75v3c-.42-.93-1.09-1.7-2.03-2.3s-2.06-.9-3.36-.9-2.37.29-3.36.86-1.76 1.39-2.32 2.45-.84 2.28-.84 3.68m-4.19 0c0 1.11-.22 2.09-.66 2.93s-1.04 1.48-1.81 1.92-1.63.66-2.6.66-1.79-.22-2.56-.67-1.39-1.09-1.83-1.92c-.45-.83-.67-1.8-.67-2.9s.22-2.06.67-2.9a4.84 4.84 0 0 1 1.83-1.92c.77-.45 1.63-.67 2.56-.67s1.83.22 2.6.65c.76.43 1.37 1.06 1.81 1.88s.66 1.8.66 2.93m-10.14-3.79v-3h-1.72V198h1.72v-9.44c.43.92 1.12 1.68 2.07 2.28.95.61 2.06.91 3.34.91s2.34-.29 3.33-.87 1.76-1.41 2.32-2.47.84-2.3.84-3.69-.28-2.62-.84-3.68-1.33-1.87-2.32-2.45c-.99-.57-2.1-.86-3.33-.86-1.3 0-2.42.3-3.36.91s-1.63 1.37-2.06 2.28m-9.76 10.84c.93 0 1.76-.17 2.47-.5.72-.33 1.27-.79 1.67-1.36s.6-1.23.6-1.96c-.02-.8-.23-1.44-.65-1.92a4.17 4.17 0 0 0-1.5-1.1c-.58-.25-1.37-.51-2.35-.77l-1.95-.64c-.48-.19-.89-.46-1.21-.8s-.49-.78-.49-1.31c0-.62.27-1.13.82-1.55s1.27-.62 2.15-.62c1 0 1.78.25 2.36.74.57.49.89 1.14.94 1.93h1.75c-.07-1.3-.55-2.32-1.45-3.06s-2.08-1.11-3.55-1.11c-.93 0-1.76.17-2.5.5-.73.33-1.3.78-1.7 1.35s-.6 1.18-.6 1.85c0 .88.22 1.58.66 2.11.44.52.98.92 1.61 1.19s1.46.53 2.47.8l1.86.56c.46.17.84.41 1.14.71s.45.68.45 1.15c0 .67-.27 1.22-.81 1.67s-1.29.67-2.23.67c-1.08 0-1.94-.24-2.58-.71a2.59 2.59 0 0 1-1.09-1.86h-1.8c.12 1.25.67 2.23 1.66 2.96.99.72 2.27 1.09 3.83 1.09m-7.56-12.36v-1.47h-3.75v-3.42h-1.77v3.42h-1.9v1.47h1.9v8.46c0 1.31.3 2.26.9 2.83s1.51.86 2.75.86h1.87v-1.5h-1.6c-.8 0-1.36-.16-1.67-.47-.32-.32-.47-.89-.47-1.72v-8.46h3.75zm-15.33-1.72c-1.05 0-1.99.23-2.83.67-.84.45-1.48 1.08-1.91 1.9v-7.17h-1.75v18.48h1.75v-7.44c0-1.61.39-2.84 1.17-3.67s1.83-1.25 3.15-1.25 2.29.39 3.03 1.17 1.11 1.91 1.11 3.4v7.79h1.72v-7.99c0-1.28-.24-2.37-.71-3.26s-1.12-1.55-1.95-1.98c-.82-.43-1.75-.65-2.78-.65m-12.23 7.07c0 1.1-.22 2.06-.67 2.9-.45.83-1.06 1.47-1.84 1.92-.77.45-1.63.67-2.56.67s-1.83-.22-2.6-.66-1.37-1.08-1.81-1.92-.66-1.82-.66-2.93.22-2.11.66-2.93 1.04-1.45 1.81-1.88 1.63-.65 2.6-.65 1.79.23 2.56.67c.77.45 1.39 1.09 1.84 1.92s.67 1.8.67 2.9m-5.39-7.01c-1.25 0-2.37.29-3.36.86s-1.76 1.39-2.32 2.45-.84 2.28-.84 3.68.28 2.63.84 3.69c.56 1.07 1.33 1.89 2.32 2.47s2.11.87 3.36.87 2.39-.3 3.33-.91 1.63-1.38 2.06-2.31v3.37c0 1-.2 1.86-.6 2.6-.4.73-.95 1.29-1.65 1.66s-1.49.56-2.37.56c-1.22 0-2.24-.28-3.08-.85s-1.41-1.32-1.71-2.27h-1.72c.28 1.43 1 2.56 2.16 3.4 1.16.83 2.61 1.25 4.36 1.25 1.23 0 2.33-.26 3.3-.79a5.64 5.64 0 0 0 2.26-2.23c.54-.96.81-2.07.81-3.32v-13.98h-1.75v2.97c-.42-.92-1.1-1.67-2.05-2.27s-2.06-.9-3.34-.9m-11.43 13.83h1.75v-13.63h-1.75v13.63zm.87-16.2a1.22 1.22 0 0 0 .9-.37 1.25 1.25 0 0 0 .37-.92c0-.36-.12-.67-.37-.91s-.55-.36-.9-.36-.65.12-.9.36-.37.55-.37.91a1.25 1.25 0 0 0 .37.92 1.22 1.22 0 0 0 .9.37m-8.16 4.99v-2.42h-1.75v13.63h1.75v-7.62c0-1.6.38-2.74 1.15-3.42s1.78-1.02 3.05-1.02h.47v-1.82c-1.15 0-2.12.23-2.91.7s-1.38 1.12-1.76 1.97m-10.74 9.74h-4.17v-6.82h4.09c1.25 0 2.24.31 2.98.94.74.62 1.11 1.46 1.11 2.51s-.35 1.87-1.06 2.47-1.69.9-2.96.9m-4.17-14.51h3.99c1.23 0 2.17.27 2.81.82s.96 1.31.96 2.27-.32 1.75-.96 2.31-1.55.84-2.73.84h-4.07v-6.24zm6.42 6.97c.92-.27 1.66-.74 2.25-1.41.58-.67.87-1.55.87-2.63 0-1.3-.46-2.36-1.39-3.17-.92-.82-2.27-1.22-4.03-1.22h-5.87v17.45h6.04c1.18 0 2.2-.2 3.05-.61s1.49-.96 1.93-1.67.66-1.5.66-2.38a4.33 4.33 0 0 0-1.02-2.85c-.68-.82-1.51-1.31-2.5-1.5m-19.17-4.62l-4.49 11.63-4.64-11.63h-1.92l5.59 13.56-2.65 6.49h1.82l8.09-20.05h-1.8zM850 184.76c0 1.11-.22 2.09-.66 2.93s-1.04 1.48-1.81 1.92-1.63.66-2.6.66-1.78-.22-2.56-.67c-.77-.45-1.39-1.09-1.84-1.92s-.67-1.8-.67-2.9.22-2.06.67-2.9c.45-.83 1.06-1.47 1.84-1.92.77-.45 1.63-.67 2.56-.67s1.83.22 2.6.65 1.37 1.06 1.81 1.88.66 1.8.66 2.93m-10.14-3.77v-7.86h-1.72v18.48h1.72v-3c.43.95 1.12 1.72 2.06 2.31s2.06.89 3.36.89c1.23 0 2.34-.29 3.33-.87s1.76-1.41 2.32-2.47.84-2.3.84-3.69-.28-2.62-.84-3.68a6.07 6.07 0 0 0-2.31-2.45c-.98-.57-2.1-.86-3.34-.86s-2.39.3-3.33.9-1.64 1.37-2.08 2.32m-14.3 3.79c0 1.1-.22 2.06-.67 2.9-.45.83-1.06 1.47-1.84 1.92-.77.45-1.63.67-2.56.67s-1.83-.22-2.6-.66-1.37-1.08-1.81-1.92-.66-1.82-.66-2.93.22-2.11.66-2.93 1.04-1.45 1.81-1.88 1.63-.65 2.6-.65 1.79.23 2.56.67c.77.45 1.39 1.09 1.84 1.92s.67 1.8.67 2.9m-11.91-.02c0 1.4.28 2.63.84 3.69.56 1.07 1.33 1.89 2.32 2.47s2.11.87 3.36.87 2.4-.3 3.34-.91c.95-.61 1.63-1.39 2.05-2.33v3.05h1.75v-18.48h-1.75v7.79c-.45-.93-1.16-1.69-2.12-2.27-.97-.58-2.05-.87-3.25-.87s-2.37.29-3.36.86-1.77 1.39-2.33 2.45c-.57 1.06-.85 2.28-.85 3.68m-4.17-.72h-9.59c.1-1.51.61-2.69 1.52-3.52.92-.83 2.02-1.25 3.32-1.25.87 0 1.66.18 2.4.55a4.24 4.24 0 0 1 1.74 1.62c.43.72.63 1.58.61 2.6m1.77.05c0-1.16-.26-2.23-.79-3.18-.52-.96-1.27-1.72-2.25-2.28-.97-.57-2.11-.85-3.41-.85s-2.46.28-3.47.85c-1.02.57-1.81 1.38-2.37 2.45-.57 1.07-.85 2.31-.85 3.72s.29 2.65.86 3.71 1.37 1.87 2.38 2.45c1.02.57 2.16.86 3.44.86 1.65 0 3.02-.42 4.11-1.26a5.76 5.76 0 0 0 2.13-3.26h-1.85c-.25.93-.76 1.67-1.54 2.22-.77.55-1.73.82-2.86.82-.87 0-1.66-.19-2.4-.56-.73-.37-1.32-.93-1.77-1.66s-.7-1.61-.75-2.65h11.31c.03-.32.05-.77.05-1.37m-19.62-3.69v-2.42h-1.75v13.63h1.75v-7.62c0-1.6.38-2.74 1.15-3.42.76-.68 1.78-1.02 3.05-1.02h.47v-1.82c-1.15 0-2.12.23-2.91.7s-1.38 1.12-1.76 1.97m-6.72 3.65h-9.59c.1-1.51.61-2.69 1.52-3.52.92-.83 2.02-1.25 3.32-1.25.87 0 1.66.18 2.4.55.73.37 1.31.91 1.73 1.62.43.72.63 1.58.61 2.6m1.77.05c0-1.16-.26-2.23-.79-3.18-.52-.96-1.27-1.72-2.25-2.28-.97-.57-2.11-.85-3.41-.85s-2.46.28-3.47.85c-1.02.57-1.81 1.38-2.37 2.45-.57 1.07-.85 2.31-.85 3.72s.29 2.65.86 3.71 1.37 1.87 2.38 2.45c1.02.57 2.16.86 3.44.86 1.65 0 3.02-.42 4.11-1.26a5.76 5.76 0 0 0 2.13-3.26h-1.85c-.25.93-.76 1.67-1.54 2.22-.77.55-1.73.82-2.86.82-.87 0-1.66-.19-2.4-.56-.73-.37-1.32-.93-1.77-1.66s-.7-1.61-.75-2.65h11.31c.03-.32.05-.77.05-1.37m-16.43-6.12l-3.37 11.88-3.77-11.88h-1.75l-3.82 11.86-3.4-11.86h-1.77l4.27 13.63h1.77l3.77-11.43 3.77 11.43h1.75l4.27-13.63h-1.72zm-26.31 12.31a5.09 5.09 0 0 1-2.48-.61c-.76-.41-1.37-1.02-1.82-1.85-.46-.82-.69-1.84-.69-3.03s.23-2.21.69-3.03 1.07-1.44 1.84-1.85 1.6-.61 2.5-.61 1.73.2 2.5.61 1.38 1.02 1.85 1.85c.47.82.7 1.84.7 3.03s-.24 2.21-.71 3.03-1.09 1.44-1.86 1.85-1.6.61-2.5.61m0 1.52c1.28 0 2.45-.29 3.5-.86s1.87-1.39 2.47-2.46c.6-1.06.9-2.3.9-3.69s-.3-2.65-.89-3.71-1.41-1.87-2.45-2.45c-1.04-.57-2.2-.86-3.48-.86s-2.44.29-3.47.86-1.85 1.39-2.45 2.45-.9 2.29-.9 3.71.3 2.65.89 3.71 1.4 1.87 2.42 2.45c1.02.57 2.18.86 3.46.86m-14.78-9.14h-3.52v-7.04h3.52c1.43 0 2.47.3 3.12.9s.97 1.48.97 2.65c0 2.33-1.37 3.5-4.09 3.5m5.89-3.5c0-1.51-.5-2.73-1.49-3.65-.99-.91-2.46-1.37-4.41-1.37h-5.27v17.45h1.75v-7.44h3.52c1.96 0 3.44-.46 4.42-1.37.98-.92 1.47-2.12 1.47-3.62" fill="#fff"/></g></svg>