<svg xmlns="http://www.w3.org/2000/svg" xmlns:xlink="http://www.w3.org/1999/xlink" viewBox="0 0 1263.3 270.3" xmlns:v="https://vecta.io/nano"><defs><path id="A" d="M0-1.4h1500v276H0z"/></defs><clipPath id="B"><use xlink:href="#A"/></clipPath><g clip-path="url(#B)"><path d="M1180.9 162.4c1.1 5 3 9.6 5.6 13.7s6 7.5 10.2 10.1 9.3 3.9 15.3 3.9 11.2-1.3 15.4-3.9c4.1-2.6 7.5-6 10.1-10.1s4.5-8.7 5.6-13.7 1.7-10 1.7-14.9-.6-9.9-1.7-14.9-3-9.6-5.6-13.7-6-7.5-10.1-10.1-9.2-3.9-15.4-3.9-11.1 1.3-15.3 3.9-7.6 6-10.2 10.1-4.5 8.7-5.6 13.7-1.7 10-1.7 14.9.6 9.9 1.7 14.9m82.4 35.4c0 3.4-1.1 5.8-3.1 7.2-2.1 1.5-4.1 2.2-6.1 2.2-2.1 0-4.2-.7-6.2-2.2s-3-3.9-3-7.2v-8.1h-.4c-4.3 6-9.2 10.4-14.7 13.3s-11.4 4.3-17.8 4.3c-8.4 0-15.8-1.6-22.3-4.9s-12-7.7-16.5-13.3-7.9-11.9-10.2-19.1-3.5-14.6-3.5-22.4 1.2-15.2 3.5-22.4 5.7-13.5 10.2-19.1 10-10 16.5-13.3 13.9-4.9 22.3-4.9c6.9 0 12.9 1.4 17.9 4.2 5.1 2.8 9.9 6.7 14.6 11.8h.4v-6.3c0-3.4 1-5.9 3-7.4s4.1-2.2 6.2-2.2c1.9 0 4 .7 6.1 2.2s3.1 3.9 3.1 7.2v100.4zM1040.7 44.4c0-3.3.9-5.8 2.7-7.7 1.8-1.8 4.2-2.8 7.2-2.8s5.4 1 7.2 2.9 2.7 4.5 2.7 7.9V104h.4c1.3-1.8 3-3.7 4.9-5.6s4.3-3.7 7-5.3 5.7-2.8 9.1-3.8 7-1.5 10.9-1.5c8.1 0 15.3 1.7 21.5 4.9s11.7 7.8 16.1 13.3c4.4 5.6 7.7 11.9 10 19.1 2.2 7.2 3.4 14.6 3.4 22.4s-1.1 15.2-3.4 22.4c-2.2 7.2-5.6 13.5-10 19.1s-9.8 10-16.1 13.3-13.5 4.9-21.5 4.9c-15.6 0-26.2-5.5-31.9-16.4h-.4v5.8c0 3.3-.9 5.9-2.7 7.7-1.8 1.9-4.2 2.8-7.2 2.8s-5.4-.9-7.2-2.8-2.7-4.4-2.7-7.7V44.4h0zm19.4 118c1.1 5 3 9.6 5.6 13.7s6 7.5 10.2 10.1 9.3 3.9 15.3 3.9 11.2-1.3 15.4-3.9c4.1-2.6 7.5-6 10.1-10.1s4.5-8.7 5.6-13.7 1.7-10 1.7-14.9-.6-9.9-1.7-14.9-3-9.6-5.6-13.7-6-7.5-10.1-10.1-9.2-3.9-15.4-3.9-11.1 1.3-15.3 3.9-7.6 6-10.2 10.1-4.5 8.7-5.6 13.7-1.7 10-1.7 14.9.6 9.9 1.7 14.9m-141-64.3c0-3.2.9-5.7 2.7-7.6s4.2-2.8 7.2-2.8 5.4.9 7.2 2.7 2.7 4.3 2.7 7.5v61.7c0 20.3 9.2 30.4 27.6 30.4s27.5-10 27.5-30.2V98.1c0-3.2.9-5.7 2.7-7.5s4.2-2.7 7.2-2.7 5.4.9 7.2 2.8c1.8 1.8 2.7 4.3 2.7 7.6v62.5c0 8.5-1.3 15.7-4 21.6s-6.2 10.8-10.7 14.5c-4.4 3.7-9.5 6.4-15.2 8a64.27 64.27 0 0 1-17.5 2.4 64.27 64.27 0 0 1-17.5-2.4c-5.7-1.6-10.7-4.3-15.2-8s-8-8.6-10.7-14.5-4-13.1-4-21.6l.1-62.7h0zm-45.8 35.4c0-5.1-.8-9.5-2.5-13.1s-3.8-6.6-6.4-8.9-5.6-3.9-8.9-5a31.07 31.07 0 0 0-9.9-1.6c-3.3 0-6.6.6-9.9 1.6-3.3 1.1-6.3 2.8-8.9 5-2.6 2.3-4.8 5.2-6.4 8.9-1.7 3.6-2.5 8-2.5 13.1v63.4c0 3.2-.9 5.7-2.7 7.6-1.8 1.8-4.2 2.7-7.2 2.7s-5.4-.9-7.2-2.8-2.7-4.4-2.7-7.7V44.4c0-3.3.9-5.8 2.7-7.7 1.8-1.8 4.2-2.8 7.2-2.8s5.4 1 7.2 2.9 2.7 4.5 2.7 7.9v58.4l.5.4c4.3-5.7 9.4-9.7 15.3-12.1 5.8-2.4 11.7-3.6 17.7-3.6 4.6 0 9.4.8 14.2 2.3 4.9 1.5 9.3 4.1 13.3 7.6s7.4 8.1 10 13.7 3.9 12.6 3.9 20.7v64.7c0 3.2-.9 5.7-2.7 7.6-1.8 1.8-4.2 2.7-7.2 2.7s-5.4-.9-7.2-2.7-2.7-4.3-2.7-7.6l.3-63.3h0zM746.3 62c0-3.3.9-5.9 2.7-7.7 1.8-1.9 4.2-2.8 7.2-2.8s5.4.9 7.2 2.8 2.7 4.5 2.7 7.7v25.8h8.1c6.6 0 9.9 2.8 9.9 8.5s-3.3 8.5-9.9 8.5H766v91.9c0 3.2-.9 5.8-2.7 7.6s-4.2 2.8-7.2 2.8-5.4-.9-7.2-2.8c-1.8-1.8-2.7-4.4-2.7-7.6v-91.9h-8.1c-6.6 0-9.9-2.8-9.9-8.5s3.3-8.5 9.9-8.5h8.1V62zM631.5 162.4c1.1 5 3 9.6 5.6 13.7s6 7.5 10.2 10.1 9.3 3.9 15.3 3.9 11.2-1.3 15.4-3.9c4.1-2.6 7.5-6 10.1-10.1s4.5-8.7 5.6-13.7 1.7-10 1.7-14.9-.6-9.9-1.7-14.9-3-9.6-5.6-13.7-6-7.5-10.1-10.1-9.2-3.9-15.4-3.9-11.1 1.3-15.3 3.9-7.6 6-10.2 10.1-4.5 8.7-5.6 13.7-1.7 10-1.7 14.9.6 9.9 1.7 14.9m82.5 35.4c0 3.4-1 5.8-3.1 7.2-2.1 1.5-4.1 2.2-6.1 2.2-2.1 0-4.2-.7-6.2-2.2s-3-3.9-3-7.2v-8.1h-.5c-4.3 6-9.2 10.4-14.7 13.3s-11.4 4.3-17.8 4.3c-8.4 0-15.8-1.6-22.3-4.9s-12-7.7-16.5-13.3-7.9-11.9-10.2-19.1-3.5-14.6-3.5-22.4 1.2-15.2 3.5-22.4 5.7-13.5 10.2-19.1 10-10 16.5-13.3 14-4.9 22.3-4.9c6.9 0 12.9 1.4 18 4.2s10 6.7 14.6 11.8h.5v-6.3c0-3.4 1-5.9 3-7.4s4.1-2.2 6.2-2.2c1.9 0 4 .7 6.1 2.2s3.1 3.9 3.1 7.2v100.4h-.1zm-215.2-66c0-8.3-2.2-14.9-6.7-19.7s-10.8-7.2-18.9-7.2-14.3 2.4-18.7 7.2-6.6 11.4-6.6 19.7V197c0 3.2-.9 5.7-2.7 7.6-1.8 1.8-4.2 2.7-7.2 2.7s-5.4-.9-7.2-2.7-2.7-4.4-2.7-7.6V98.1c0-3.2.9-5.7 2.7-7.6 1.8-1.8 4.2-2.8 7.2-2.8s5.4.9 7.2 2.8 2.7 4.4 2.7 7.7v3.6l.5.4c1.3-1.7 2.7-3.3 4.1-4.8 1.6-1.7 3.5-3.3 6-4.7 2.4-1.4 5.2-2.6 8.4-3.6s7.1-1.5 11.6-1.5c5.8 0 11.6 1.4 17.4 4.3s10.9 8 15.4 15.5c4.3-6.1 9.3-11 15-14.5s12.9-5.3 21.5-5.3c4.6 0 9.4.8 14.2 2.3 4.9 1.5 9.3 4.1 13.3 7.6s7.4 8.1 10 13.7 3.9 12.6 3.9 20.7v64.7c0 3.2-.9 5.7-2.7 7.6-1.8 1.8-4.2 2.7-7.2 2.7s-5.4-.9-7.2-2.7-2.7-4.3-2.7-7.6v-65.2c0-8.3-2.2-14.9-6.7-19.7s-10.8-7.2-18.8-7.2-14.3 2.4-18.7 7.2-6.6 11.4-6.6 19.7v65.2c0 3.2-.9 5.7-2.7 7.6-1.8 1.8-4.2 2.7-7.2 2.7s-5.4-.9-7.2-2.7-2.7-4.3-2.7-7.6v-64.8h0zm-179.2 30.6c1.1 5 3 9.6 5.6 13.7s6 7.5 10.2 10.1 9.3 3.9 15.3 3.9 11.2-1.3 15.4-3.9c4.1-2.6 7.5-6 10.1-10.1s4.5-8.7 5.6-13.7 1.7-10 1.7-14.9-.6-9.9-1.7-14.9-3-9.6-5.6-13.7-6-7.5-10.1-10.1-9.2-3.9-15.4-3.9-11.1 1.3-15.3 3.9-7.6 6-10.2 10.1-4.5 8.7-5.6 13.7-1.7 10-1.7 14.9.5 9.9 1.7 14.9m82.4 35.4c0 3.4-1 5.8-3.1 7.2-2.1 1.5-4.1 2.2-6.1 2.2-2.1 0-4.1-.7-6.2-2.2s-3-3.9-3-7.2v-8.1h-.5c-4.3 6-9.2 10.4-14.7 13.3s-11.4 4.3-17.8 4.3c-8.4 0-15.8-1.6-22.3-4.9s-12-7.7-16.5-13.3-7.9-11.9-10.2-19.1-3.5-14.6-3.5-22.4 1.2-15.2 3.5-22.4 5.7-13.5 10.2-19.1 10-10 16.5-13.3 14-4.9 22.3-4.9c6.9 0 12.9 1.4 18 4.2s10 6.7 14.6 11.8h.5v-6.3c0-3.4 1-5.9 3-7.4s4.1-2.2 6.2-2.2c1.9 0 4 .7 6.1 2.2s3.1 3.9 3.1 7.2v100.4z" fill="#444"/><path d="M8.2 195.3c-3.4 5.3-4.6 9.3-4.9 10.3-8.5 22.8.1 48.5 22.1 59.5 21.3 10.6 46.8 3.3 59.5-16.1 18.2-27.8 55.3-36.6 79.8-17.6-24-23.6-46.8-39.6-60.7-45.9-32.7-14.8-66.4-14.5-87.5 1.8-3.1 2.3-6.2 4.7-8.3 8" fill="#63c29c"/><path d="M175.2 25.6c-16.9-34-65.9-34.4-83.1 0L52.2 106c.1-.1 8.1-16.4 45.6-14.5 10.6.5 37.6.5 37.6.5 16.5-1 27.8-7.7 37.3-19.4 18.9-23.1 2.5-47 2.5-47" fill="#f37167"/><path d="M264.1 205.6c-2.9-7-67.6-137.2-84.8-171.7 1 8.8 4.3 25.2-6.6 38.6-9.5 11.7-20.8 18.4-37.3 19.4 0 0-27.1.1-37.6-.5-37.4-1.9-45.5 14.4-45.6 14.5l-44 89.4h0c19.8-23.9 58.3-26.7 95.7-9.8 13.8 6.2 36.2 21.9 59.9 45.1.6.5 11.7 10.6 18.7 18.4 18.9 21 38.2 26.7 59.5 16.1 22-11 31.5-37.1 22.1-59.5" fill="#1f376a"/></g></svg>