<svg xmlns="http://www.w3.org/2000/svg" xmlns:xlink="http://www.w3.org/1999/xlink" viewBox="0 0 1020.8 217.2" xmlns:v="https://vecta.io/nano"><defs><path id="A" d="M0 0h1250v217.2H0z"/></defs><clipPath id="B"><use xlink:href="#A"/></clipPath><g clip-path="url(#B)"><path d="M949.5 117.1c.9 4 2.4 7.7 4.5 11s4.8 6 8.2 8.1 7.5 3.1 12.3 3.1 9-1.1 12.4-3.1 6-4.8 8.1-8.1 3.6-7 4.5-11 1.3-8 1.3-12-.5-7.9-1.3-12c-.9-4-2.4-7.7-4.5-11a26.09 26.09 0 0 0-8.1-8.1c-3.3-2.1-7.4-3.2-12.4-3.2s-8.9 1.1-12.3 3.2-6.1 4.8-8.2 8.1-3.6 7-4.5 11-1.3 8-1.3 12 .4 8 1.3 12m66.3 28.5c0 2.7-.8 4.6-2.5 5.8s-3.3 1.8-4.9 1.8c-1.7 0-3.3-.6-5-1.8-1.6-1.2-2.4-3.1-2.4-5.8V139h-.4c-3.5 4.8-7.4 8.4-11.8 10.7s-9.2 3.4-14.3 3.4c-6.7 0-12.7-1.3-18-4-5.2-2.6-9.7-6.2-13.3-10.7s-6.3-9.6-8.2-15.3c-1.9-5.8-2.8-11.8-2.8-18s.9-12.2 2.8-18 4.6-10.9 8.2-15.3 8-8 13.3-10.7 11.2-4 18-4c5.5 0 10.3 1.1 14.4 3.3s8 5.4 11.7 9.5h.4v-5.1c0-2.8.8-4.8 2.4-6s3.3-1.8 5-1.8c1.6 0 3.2.6 4.9 1.8s2.5 3.1 2.5 5.8v81h0zm-179-123.3c0-2.6.7-4.7 2.2-6.2s3.4-2.2 5.8-2.2 4.3.8 5.8 2.3 2.2 3.6 2.2 6.4v47.6h.4c1.1-1.4 2.4-2.9 4-4.5a24.13 24.13 0 0 1 5.6-4.2c2.2-1.2 4.6-2.3 7.3-3.1s5.6-1.2 8.8-1.2c6.5 0 12.3 1.3 17.3 4 5 2.6 9.4 6.2 12.9 10.7s6.2 9.6 8 15.3c1.8 5.8 2.7 11.8 2.7 18s-.9 12.2-2.7 18-4.5 10.9-8 15.3a40.62 40.62 0 0 1-12.9 10.7c-5 2.6-10.8 4-17.3 4-12.5 0-21-4.4-25.6-13.2h-.4v4.7c0 2.6-.7 4.7-2.2 6.2-1.4 1.5-3.4 2.2-5.8 2.2s-4.3-.7-5.8-2.2c-1.4-1.5-2.2-3.6-2.2-6.2l-.1-122.4h0zm15.6 94.8c.9 4 2.4 7.7 4.5 11s4.8 6 8.2 8.1 7.5 3.1 12.3 3.1 9-1.1 12.4-3.1 6-4.8 8.1-8.1 3.6-7 4.5-11 1.3-8 1.3-12-.5-7.9-1.3-12c-.9-4-2.4-7.7-4.5-11a26.09 26.09 0 0 0-8.1-8.1c-3.3-2.1-7.4-3.2-12.4-3.2s-8.9 1.1-12.3 3.2-6.1 4.8-8.2 8.1-3.6 7-4.5 11-1.3 8-1.3 12 .4 8 1.3 12M739 65.5c0-2.6.7-4.6 2.2-6.1 1.4-1.5 3.4-2.2 5.8-2.2s4.3.7 5.8 2.2 2.2 3.5 2.2 6.1V115c0 16.3 7.4 24.4 22.2 24.4s22.2-8.1 22.2-24.4V65.4c0-2.6.7-4.6 2.2-6.1 1.4-1.5 3.4-2.2 5.8-2.2s4.3.7 5.8 2.2 2.2 3.5 2.2 6.1v50.3c0 6.8-1.1 12.6-3.2 17.4-2.2 4.8-5 8.6-8.6 11.6s-7.6 5.1-12.2 6.4-9.3 1.9-14.1 1.9-9.5-.6-14.1-1.9-8.6-3.4-12.2-6.4-6.4-6.9-8.6-11.6c-2.2-4.8-3.2-10.5-3.2-17.4l-.2-50.2h0zm-36.8 28.4c0-4.1-.7-7.6-2-10.5s-3-5.3-5.1-7.1-4.5-3.2-7.1-4c-2.7-.9-5.3-1.3-7.9-1.3s-5.3.4-7.9 1.3-5 2.2-7.1 4-3.8 4.2-5.1 7.1-2 6.4-2 10.5v51c0 2.6-.7 4.6-2.2 6.1-1.4 1.5-3.4 2.2-5.8 2.2s-4.3-.7-5.8-2.2c-1.4-1.5-2.2-3.6-2.2-6.2V22.3c0-2.6.7-4.7 2.2-6.2s3.4-2.2 5.8-2.2 4.3.8 5.8 2.3 2.2 3.6 2.2 6.4v46.9l.4.4c3.5-4.6 7.6-7.8 12.3-9.7s9.4-2.9 14.2-2.9c3.7 0 7.5.6 11.5 1.8 3.9 1.2 7.5 3.3 10.7 6.1s5.9 6.5 8 11 3.2 10.1 3.2 16.7v52c0 2.6-.7 4.6-2.2 6.1s-3.4 2.2-5.8 2.2-4.3-.7-5.8-2.2c-1.4-1.5-2.2-3.5-2.2-6.1l-.1-51h0zM600.1 36.4c0-2.6.7-4.7 2.2-6.2s3.4-2.2 5.8-2.2 4.3.8 5.8 2.2c1.4 1.5 2.2 3.6 2.2 6.2v20.7h6.5c5.3 0 7.9 2.3 7.9 6.8s-2.7 6.9-7.9 6.9H616v73.9c0 2.6-.7 4.7-2.2 6.1s-3.4 2.2-5.8 2.2-4.3-.7-5.8-2.2-2.2-3.5-2.2-6.1V70.9h-6.5c-5.3 0-7.9-2.3-7.9-6.9s2.6-6.8 7.9-6.8h6.5V36.4h.1zm-92.2 80.7c.9 4 2.4 7.7 4.5 11s4.8 6 8.2 8.1 7.5 3.1 12.3 3.1 9-1.1 12.4-3.1 6-4.8 8.1-8.1 3.6-7 4.5-11 1.3-8 1.3-12-.5-7.9-1.3-12c-.9-4-2.4-7.7-4.5-11a26.09 26.09 0 0 0-8.1-8.1c-3.3-2.1-7.4-3.2-12.4-3.2s-8.9 1.1-12.3 3.2-6.1 4.8-8.2 8.1-3.6 7-4.5 11-1.4 8-1.4 12 .5 8 1.4 12m66.3 28.5c0 2.7-.8 4.6-2.5 5.8s-3.3 1.8-4.9 1.8c-1.7 0-3.3-.6-5-1.8-1.6-1.2-2.4-3.1-2.4-5.8V139h-.4c-3.5 4.8-7.4 8.4-11.8 10.7s-9.2 3.4-14.3 3.4c-6.7 0-12.7-1.3-18-4-5.2-2.6-9.7-6.2-13.3-10.7s-6.3-9.6-8.2-15.3c-1.9-5.8-2.8-11.8-2.8-18s.9-12.2 2.8-18 4.6-10.9 8.2-15.3 8-8 13.3-10.7 11.2-4 18-4c5.5 0 10.3 1.1 14.4 3.3s8 5.4 11.7 9.5h.4v-5.1c0-2.8.8-4.8 2.4-6s3.3-1.8 5-1.8c1.6 0 3.2.6 4.9 1.8s2.5 3.1 2.5 5.8v81h0zm-173-53.1c0-6.7-1.8-11.9-5.4-15.8s-8.7-5.8-15.1-5.8-11.5 1.9-15.1 5.8c-3.5 3.9-5.3 9.1-5.3 15.8v52.4c0 2.6-.7 4.6-2.2 6.1-1.4 1.5-3.4 2.2-5.8 2.2s-4.3-.7-5.8-2.2-2.2-3.5-2.2-6.1V65.5c0-2.6.7-4.6 2.2-6.1 1.4-1.5 3.4-2.2 5.8-2.2s4.3.8 5.8 2.3c1.4 1.5 2.2 3.6 2.2 6.2v2.9l.4.4 3.3-3.9c1.3-1.4 2.9-2.6 4.8-3.8 1.9-1.1 4.2-2.1 6.8-2.9s5.7-1.2 9.3-1.2c4.7 0 9.4 1.2 14 3.4s8.8 6.4 12.4 12.4c3.5-4.9 7.5-8.8 12.1-11.6s10.3-4.2 17.3-4.2c3.7 0 7.5.6 11.5 1.8 3.9 1.2 7.5 3.3 10.7 6.1s5.9 6.5 8 11 3.2 10.1 3.2 16.7v52c0 2.6-.7 4.6-2.2 6.1s-3.4 2.2-5.8 2.2-4.3-.7-5.8-2.2c-1.4-1.5-2.2-3.5-2.2-6.1V92.5c0-6.7-1.8-11.9-5.4-15.8s-8.7-5.8-15.1-5.8-11.5 1.9-15.1 5.8c-3.5 3.9-5.3 9.1-5.3 15.8v52.4c0 2.6-.7 4.6-2.2 6.1-1.4 1.5-3.4 2.2-5.8 2.2s-4.3-.7-5.8-2.2c-1.4-1.5-2.2-3.5-2.2-6.1V92.5h0zm-144.1 24.6c.9 4 2.4 7.7 4.5 11s4.8 6 8.2 8.1 7.5 3.1 12.3 3.1 9-1.1 12.4-3.1 6-4.8 8.1-8.1 3.6-7 4.5-11 1.4-8 1.4-12-.5-7.9-1.4-12c-.9-4-2.4-7.7-4.5-11a26.09 26.09 0 0 0-8.1-8.1c-3.3-2.1-7.4-3.2-12.4-3.2s-8.9 1.1-12.3 3.2-6.1 4.8-8.2 8.1-3.6 7-4.5 11-1.4 8-1.4 12 .5 8 1.4 12m66.3 28.5c0 2.7-.8 4.6-2.5 5.8s-3.3 1.8-4.9 1.8c-1.7 0-3.3-.6-5-1.8-1.6-1.2-2.4-3.1-2.4-5.8V139h-.4c-3.5 4.8-7.4 8.4-11.8 10.7s-9.2 3.4-14.3 3.4c-6.7 0-12.7-1.3-18-4-5.2-2.6-9.6-6.2-13.3-10.7s-6.3-9.6-8.2-15.3c-1.9-5.8-2.8-11.8-2.8-18s.9-12.2 2.8-18 4.6-10.9 8.2-15.3 8-8 13.3-10.7 11.2-4 18-4c5.5 0 10.3 1.1 14.4 3.3s8 5.4 11.7 9.5h.4v-5.1c0-2.8.8-4.8 2.4-6s3.3-1.8 5-1.8c1.6 0 3.2.6 4.9 1.8s2.5 3.1 2.5 5.8v81h0z" fill="#fff"/><path d="M6.8 156.8c-2.7 4.2-3.7 7.5-4 8.3-6.8 18.3 0 38.9 17.7 47.7 17.1 8.5 37.5 2.7 47.7-12.9 14.6-22.3 44.3-29.3 64-14.1C113 166.9 94.7 154 83.6 149c-26.2-11.9-53.2-11.7-70.1 1.4-2.5 1.9-5 3.8-6.7 6.4" fill="#63c29d"/><path d="M6.8 156.8c-2.7 4.2-3.7 7.5-4 8.3-6.8 18.3 0 38.9 17.7 47.7 17.1 8.5 37.5 2.7 47.7-12.9 14.6-22.3 44.3-29.3 64-14.1C113 166.9 94.7 154 83.6 149c-26.2-11.9-53.2-11.7-70.1 1.4-2.5 1.9-5 3.8-6.7 6.4z" fill="none" stroke="#fff" stroke-width=".5" stroke-miterlimit="10"/><path d="M143.9 27.3c-1.5-4-3.2-6.5-3.2-6.5-13.6-27.2-52.8-27.6-66.6 0l-32 64.4c.1-.2 2.7-5.2 11.7-8.6h.1l.9-.3c.2-.1.4-.1.6-.2.1 0 .2-.1.2-.1 5.4-1.8 12.9-2.9 23.1-2.4 8.5.4 30.2.4 30.2.4 13.2-.8 22.3-6.2 29.9-15.5 8.7-10.8 5.9-24.1 5.1-31.2" fill="#f37167"/><path d="M143.9 27.3c-1.5-4-3.2-6.5-3.2-6.5-13.6-27.2-52.8-27.6-66.6 0l-32 64.4c.1-.2 2.7-5.2 11.7-8.6h.1l.9-.3c.2-.1.4-.1.6-.2.1 0 .2-.1.2-.1 5.4-1.8 12.9-2.9 23.1-2.4 8.5.4 30.2.4 30.2.4 13.2-.8 22.3-6.2 29.9-15.5 8.7-10.8 5.9-24.1 5.1-31.2h0z" fill="none" stroke="#fff" stroke-width=".5"/><path d="M212 165.1c-2.4-5.6-54.4-110.2-68.1-137.8.8 7 3.6 20.4-5.1 31.1-7.6 9.4-16.7 14.8-29.9 15.6 0 0-21.7 0-30.2-.4-30-1.5-36.5 11.6-36.5 11.6L6.8 156.8h0c15.8-19.2 46.8-21.4 76.7-7.8 11.1 5 29 17.6 48 36.1.5.4 9.4 8.5 15 14.8 15.1 16.8 30.6 21.4 47.7 12.9 17.7-8.8 25.3-29.8 17.8-47.7" fill="#1f376a"/><path d="M212 165.1c-2.4-5.6-54.4-110.2-68.1-137.8.8 7 3.6 20.4-5.1 31.1-7.6 9.4-16.7 14.8-29.9 15.6 0 0-21.7 0-30.2-.4-30-1.5-36.5 11.6-36.5 11.6L6.8 156.8h0c15.8-19.2 46.8-21.4 76.7-7.8 11.1 5 29 17.6 48 36.1.5.4 9.4 8.5 15 14.8 15.1 16.8 30.6 21.4 47.7 12.9 17.7-8.8 25.3-29.8 17.8-47.7h0z" fill="none" stroke="#fff" stroke-width=".5" stroke-miterlimit="10"/></g></svg>