<?xml version="1.0" encoding="UTF-8"?><svg id="Layer_1" xmlns="http://www.w3.org/2000/svg" xmlns:xlink="http://www.w3.org/1999/xlink" viewBox="0 0 59.15 72.85"><defs><style>.cls-1{fill:none;}.cls-2{clip-path:url(#clippath);}.cls-3{fill:#63c29c;}.cls-4{fill:#231f20;}</style><clipPath id="clippath"><rect class="cls-1" width="59.15" height="72.85"/></clipPath></defs><rect class="cls-3" x="13.41" y="0" width="45.73" height="53.31"/><g class="cls-2"><path class="cls-4" d="M2.35,58.35c-.02-.33-.03-.48-.03-.62,0-15.95,0-31.91,0-47.86,0-2.59,1.9-4.55,4.5-4.72,.85-.06,1.37-.54,1.32-1.23-.05-.69-.61-1.11-1.47-1.06-1.61,.09-3.04,.64-4.25,1.71C.74,6.06,0,7.96,.01,10.2,.03,27.78,.08,45.36,0,62.95c-.02,3.8,2.46,6.73,5.69,7.34,1.49,.28,3.05,.19,4.57,.22,.86,.02,1.4-.46,1.39-1.15,0-.69-.54-1.13-1.41-1.14-1.07,0-2.14,.02-3.21-.02-2.53-.09-4.65-2.13-4.71-4.49-.07-2.77,2.02-4.86,4.87-4.86,15.69,0,31.37,0,47.06,0,1.45,0,1.77-.31,1.77-1.73,0-17.51,0-35.02,0-52.53,0-1.43-.32-1.74-1.76-1.74H11.14c-1.2,0-1.77,.36-1.78,1.13-.01,.8,.56,1.17,1.82,1.17,13.86,0,27.72,0,41.59,0h.9V56.54h-.99c-14.71,0-29.43,.01-44.14-.01-2.21,0-4.32,.17-6.18,1.82"/><path class="cls-4" d="M7.02,34.31v18.08c0,.22-.01,.44,0,.66,.06,.65,.53,1.11,1.13,1.12,.6,0,1.08-.44,1.16-1.09,.02-.19,0-.39,0-.58,0-12.1,0-24.2,0-36.31,0-.15,0-.29,0-.44-.04-.74-.52-1.24-1.17-1.23-.62,.01-1.08,.5-1.12,1.2-.01,.22,0,.44,0,.66v17.94"/><path class="cls-4" d="M23.34,63.51c1.24,0,2.35,.02,3.47,0,.7-.02,1.18-.51,1.19-1.13,0-.62-.47-1.1-1.17-1.16-.12,0-.24,0-.36,0-3.67,0-7.34,0-11.01,0-1.06,0-1.43,.37-1.43,1.45,0,2.87,0,5.74,0,8.6,0,.64,.07,1.22,.76,1.5,.67,.27,1.11-.13,1.52-.56,.77-.8,1.53-1.61,2.29-2.42,.94,.93,1.74,1.7,2.53,2.49,.42,.42,.85,.74,1.48,.48,.61-.26,.74-.77,.74-1.37-.01-1.21,0-2.43,0-3.65v-4.22Z"/><path class="cls-4" d="M49.65,68.22H27.43c-1.14,0-1.7,.37-1.71,1.12-.02,.79,.56,1.18,1.74,1.18h26.84c.17,0,.34,0,.51,0,.71-.04,1.19-.48,1.22-1.11,.03-.64-.47-1.13-1.21-1.19-3.11-.27-4.93-2.49-4.54-5.55,.1-.77-.3-1.36-.98-1.44-.63-.08-1.13,.36-1.27,1.12-.39,2.15,.23,4.03,1.64,5.87"/><path class="cls-4" d="M31.6,21.52c-2.31,0-4.62,0-6.93,0-.77,0-1.27,.46-1.29,1.11-.02,.65,.48,1.18,1.22,1.18,4.62,.01,9.24,.01,13.87,0,.71,0,1.19-.48,1.22-1.11,.02-.69-.51-1.18-1.36-1.18-2.24,0-4.48,0-6.71,0"/><path class="cls-4" d="M31.54,28.49c2.16,0,4.33,0,6.5,0,1.07,0,1.62-.38,1.64-1.13,.02-.77-.55-1.17-1.67-1.17h-12.19c-.34,0-.68,0-1.02,0-.87,.01-1.4,.44-1.42,1.13-.01,.72,.53,1.16,1.45,1.17,.15,0,.29,0,.44,0h6.28Z"/><path class="cls-4" d="M7.02,10.37c0,.17,0,.34,0,.51,.03,.74,.49,1.24,1.13,1.26,.64,.01,1.13-.49,1.16-1.22,.02-.34,.02-.68,0-1.01-.04-.73-.52-1.23-1.17-1.22-.62,.01-1.08,.49-1.13,1.19-.01,.17,0,.34,0,.51"/><path class="cls-4" d="M32.16,63.52c.15,0,.29,0,.43,0,.74-.04,1.24-.5,1.25-1.14,0-.64-.49-1.11-1.23-1.15-.15,0-.29,0-.43,0-1.23,0-1.81,.38-1.79,1.18,.02,.77,.58,1.12,1.77,1.12"/><path class="cls-4" d="M2.35,58.35c1.86-1.65,3.97-1.82,6.18-1.82,14.72,.03,29.43,.01,44.14,.01h.99V5.14h-.9c-13.86,0-27.73,0-41.59,0-1.26,0-1.83-.37-1.82-1.17,.01-.78,.57-1.13,1.78-1.13H54.27c1.45,0,1.76,.31,1.76,1.74,0,17.51,0,35.02,0,52.53,0,1.42-.32,1.73-1.77,1.73-15.69,0-31.37,0-47.06,0-2.85,0-4.94,2.1-4.87,4.86,.06,2.36,2.18,4.4,4.71,4.49,1.07,.04,2.14,0,3.21,.02,.87,0,1.4,.45,1.41,1.14,0,.69-.53,1.18-1.39,1.15-1.53-.04-3.09,.06-4.57-.22C2.46,69.68-.02,66.75,0,62.95,.08,45.36,.03,27.78,.01,10.2c0-2.24,.73-4.14,2.42-5.64,1.21-1.07,2.64-1.62,4.25-1.71,.86-.05,1.42,.37,1.47,1.06,.05,.69-.47,1.17-1.32,1.23-2.6,.17-4.5,2.13-4.5,4.72,0,15.96,0,31.91,0,47.86,0,.14,.01,.29,.03,.62"/><path class="cls-4" d="M7.02,34.31V16.37c0-.22,0-.44,0-.66,.04-.7,.5-1.19,1.12-1.2,.65-.01,1.13,.49,1.17,1.23,0,.14,0,.29,0,.44,0,12.1,0,24.21,0,36.31,0,.19,.01,.39,0,.58-.07,.65-.56,1.1-1.16,1.09-.6,0-1.06-.47-1.13-1.12-.02-.22,0-.44,0-.66v-18.08"/><path class="cls-4" d="M16.37,68.73c.08,.06,.16,.11,.24,.17,.38-.44,.73-.91,1.14-1.32,.71-.72,1.26-.7,1.99,.02,.39,.38,.75,.79,1.25,1.3v-5.34h-4.62v5.17Zm6.97-5.22v4.22c0,1.22,0,2.43,0,3.65,0,.6-.12,1.11-.74,1.37-.63,.26-1.06-.06-1.48-.48-.79-.79-1.59-1.57-2.53-2.49-.76,.81-1.52,1.62-2.29,2.42-.41,.43-.85,.83-1.52,.56-.69-.28-.76-.86-.76-1.5,.01-2.87,0-5.73,0-8.6,0-1.07,.37-1.45,1.43-1.45,3.67,0,7.34,0,11.01,0,.12,0,.24,0,.36,0,.69,.06,1.17,.54,1.17,1.16,0,.62-.49,1.11-1.19,1.13-1.12,.03-2.23,0-3.47,0"/><path class="cls-4" d="M49.65,68.22c-1.41-1.84-2.03-3.73-1.64-5.87,.14-.76,.64-1.2,1.27-1.12,.68,.08,1.08,.67,.98,1.44-.39,3.06,1.43,5.28,4.54,5.55,.74,.06,1.24,.55,1.21,1.19-.03,.62-.51,1.07-1.22,1.11-.17,.01-.34,0-.51,0H27.45c-1.18,0-1.76-.39-1.74-1.18,.02-.76,.57-1.12,1.71-1.12h22.22Z"/><path class="cls-4" d="M31.6,21.52c2.24,0,4.48,0,6.71,0,.85,0,1.39,.49,1.36,1.18-.02,.62-.51,1.1-1.22,1.11-4.62,.01-9.24,.01-13.87,0-.74,0-1.24-.53-1.22-1.18,.02-.65,.52-1.1,1.29-1.11,2.31-.01,4.62,0,6.93,0"/><path class="cls-4" d="M31.54,28.49h-6.28c-.15,0-.29,0-.44,0-.92-.01-1.46-.45-1.45-1.17,.01-.69,.54-1.12,1.42-1.13,.34,0,.68,0,1.02,0h12.19c1.12,0,1.69,.4,1.67,1.17-.01,.75-.57,1.13-1.64,1.13-2.17,0-4.33,0-6.5,0"/><path class="cls-4" d="M7.02,10.37c0-.17,0-.34,0-.51,.05-.69,.51-1.17,1.13-1.19,.64-.01,1.13,.49,1.17,1.22,.02,.34,.02,.68,0,1.01-.04,.73-.52,1.23-1.16,1.22-.64-.01-1.1-.51-1.13-1.26,0-.17,0-.34,0-.51"/><path class="cls-4" d="M32.16,63.52c-1.19,0-1.75-.35-1.77-1.12-.02-.8,.56-1.18,1.79-1.18,.15,0,.29,0,.43,0,.74,.04,1.24,.51,1.23,1.15,0,.64-.5,1.1-1.25,1.14-.14,0-.29,0-.43,0"/><path class="cls-4" d="M16.37,68.73v-5.17h4.62v5.34c-.49-.52-.86-.92-1.25-1.3-.73-.72-1.28-.74-1.99-.02-.41,.41-.76,.88-1.14,1.32-.08-.06-.16-.11-.24-.17"/></g></svg>