<?xml version="1.0" encoding="UTF-8"?><svg id="Layer_2" xmlns="http://www.w3.org/2000/svg" xmlns:xlink="http://www.w3.org/1999/xlink" viewBox="0 0 138.06 132.94"><defs><style>.cls-1{fill:none;}.cls-2{clip-path:url(#clippath);}.cls-3{fill:#816327;}</style><clipPath id="clippath"><rect class="cls-1" width="138.06" height="132.94"/></clipPath></defs><g id="Layer_1-2"><g class="cls-2"><path class="cls-3" d="M25.78,132.94c1.06-4.2,2.07-8.2,3.08-12.19,3.06-12.02,6.11-24.03,9.21-36.03,.26-.99,.06-1.53-.69-2.17C25.25,72.28,13.15,61.99,1.04,51.71c-.27-.23-.52-.47-1.04-.94,2.26-.17,4.23-.34,6.21-.47,14.27-.93,28.55-1.87,42.83-2.75,1.01-.06,1.26-.61,1.55-1.34,5.87-14.78,11.75-29.55,17.63-44.33,.21-.53,.44-1.06,.78-1.89,.29,.7,.49,1.12,.66,1.56,5.92,14.86,11.84,29.71,17.73,44.58,.38,.95,.81,1.37,1.91,1.43,10.55,.64,21.1,1.36,31.65,2.05,4.76,.31,9.52,.61,14.28,.91,.85,.06,1.69,.14,2.85,.23-.56,.5-.91,.82-1.27,1.12-12.04,10.21-24.08,20.43-36.15,30.61-.82,.69-.96,1.29-.71,2.29,4.01,15.58,7.97,31.16,11.94,46.74,.1,.39,.17,.78,.29,1.38-.62-.37-1.08-.64-1.52-.92-13.49-8.53-26.99-17.05-40.46-25.61-.9-.57-1.49-.56-2.39,0-13.51,8.58-27.05,17.12-40.58,25.68-.41,.26-.83,.5-1.45,.87"/></g></g></svg>