<?xml version="1.0" encoding="UTF-8"?><svg id="Layer_1" xmlns="http://www.w3.org/2000/svg" xmlns:xlink="http://www.w3.org/1999/xlink" viewBox="0 0 40.96 40.96"><defs><style>.cls-1{fill:none;}.cls-2{clip-path:url(#clippath);}.cls-3{fill:#fff;}</style><clipPath id="clippath"><rect class="cls-1" width="40.96" height="40.96"/></clipPath></defs><g class="cls-2"><path class="cls-3" d="M39.18,20.49c.01-10.3-8.38-18.7-18.7-18.71C10.19,1.77,1.79,10.16,1.78,20.47c-.01,10.3,8.38,18.7,18.7,18.71,10.3,.01,18.7-8.38,18.71-18.7m1.78,0c-.01,11.3-9.19,20.47-20.48,20.47C9.17,40.96-.03,31.74,0,20.45,.03,9.14,9.22-.02,20.5,0c11.31,.02,20.47,9.2,20.46,20.49"/><path class="cls-3" d="M19.59,16.24c0-1.37,0-2.75,0-4.12,0-.72,.59-1.15,1.2-.91,.41,.16,.57,.49,.57,.92,0,.92,0,1.84,0,2.76,0,1.63,0,3.25,0,4.88,0,.26,.08,.44,.26,.62,3,2.99,6,5.99,9,8.99,.58,.58,.65,1.07,.21,1.48-.43,.41-.89,.33-1.45-.23-3.1-3.1-6.2-6.21-9.31-9.3-.33-.33-.49-.69-.48-1.17,.02-1.31,0-2.61,0-3.92"/><path class="cls-3" d="M21.37,5.58c0,.65-.29,1.04-.81,1.08-.07,0-.13,0-.2,0-.52-.06-.78-.45-.76-1.16,.01-.6,.3-.97,.79-1.02,.61-.06,.98,.36,.98,1.1"/><path class="cls-3" d="M5.57,21.37c-.64,0-1.02-.26-1.09-.76-.05-.38,.08-.7,.42-.87,.46-.23,.95-.24,1.4,.04,.33,.21,.41,.54,.34,.91-.09,.45-.47,.68-1.07,.68"/><path class="cls-3" d="M35.39,21.37c-.66,0-1.04-.28-1.08-.8,0-.05,0-.11,0-.16,.04-.51,.42-.8,1.04-.81,.69,0,1.09,.26,1.14,.78,.06,.61-.36,.99-1.1,.99"/><path class="cls-3" d="M21.37,35.41c0,.66-.32,1.06-.85,1.08-.37,0-.67-.14-.81-.48-.18-.44-.2-.91,.06-1.34,.19-.31,.5-.41,.86-.36,.49,.07,.74,.45,.74,1.1"/><path class="cls-3" d="M10.98,10.04c0,.42-.17,.67-.48,.84-.29,.16-.6,.16-.86-.05-.21-.16-.4-.35-.56-.56-.26-.34-.21-.79,.09-1.09,.31-.31,.76-.36,1.12-.1,.34,.25,.67,.53,.69,.95"/><path class="cls-3" d="M30.87,10.98c-.47,.01-.88-.37-.89-.84-.02-.51,.65-1.22,1.17-1.23,.46-.01,.9,.43,.9,.89,0,.49-.68,1.17-1.18,1.18"/><path class="cls-3" d="M10.3,29.97c.13,.11,.45,.27,.56,.51,.11,.22,.07,.58-.04,.81-.1,.24-.35,.43-.57,.59-.34,.25-.79,.19-1.09-.11-.3-.3-.35-.74-.09-1.09,.26-.36,.55-.7,1.22-.72"/></g></svg>