<?xml version="1.0" encoding="UTF-8"?>
<svg id="Layer_1" data-name="Layer 1" xmlns="http://www.w3.org/2000/svg" xmlns:xlink="http://www.w3.org/1999/xlink" viewBox="0 0 96.61 93.41">
  <defs>
    <style>
      .cls-1 {
        clip-path: url(#clippath);
      }

      .cls-2 {
        fill: none;
      }

      .cls-2, .cls-3, .cls-4, .cls-5 {
        stroke-width: 0px;
      }

      .cls-3 {
        fill: #231f20;
      }

      .cls-4 {
        fill: #63c29c;
      }

      .cls-5 {
        fill: #fff;
      }
    </style>
    <clipPath id="clippath">
      <rect class="cls-2" width="96.61" height="93.41"/>
    </clipPath>
  </defs>
  <g class="cls-1">
    <path class="cls-5" d="m96.61,33.69c-.37-1.27-.64-2.59-1.13-3.81-2.62-6.53-9.41-10.47-16.36-9.53-.47.06-.8.09-1.08-.47-3.55-7.1-10.53-10.31-18.21-8.43-.09.02-.18.02-.36.03-.13-.27-.27-.56-.42-.85-3.02-5.94-7.8-9.45-14.4-10.46-.17-.03-.33-.11-.5-.16h52.46v33.69Z"/>
    <path class="cls-4" d="m43.16,36.7c9.3,0,16.84-7.54,16.84-16.84S52.47,3.01,43.16,3.01s-16.84,7.54-16.84,16.85,7.54,16.84,16.84,16.84"/>
    <path class="cls-4" d="m27.31,49.72c9.3,0,16.85-7.54,16.85-16.85s-7.54-16.84-16.85-16.84-16.84,7.54-16.84,16.84,7.54,16.85,16.84,16.85"/>
    <path class="cls-4" d="m62.15,47.49c9.3,0,16.84-7.54,16.84-16.85s-7.54-16.85-16.84-16.85-16.84,7.54-16.84,16.85,7.54,16.85,16.84,16.85"/>
    <path class="cls-4" d="m78.54,49.72c8.62,0,15.61-6.05,15.61-13.51s-6.99-13.51-15.61-13.51-15.61,6.05-15.61,13.51,6.99,13.51,15.61,13.51"/>
    <path class="cls-4" d="m60.19,66.5c9.49,0,17.19-6.05,17.19-13.51s-7.7-13.51-17.19-13.51-17.19,6.05-17.19,13.51,7.7,13.51,17.19,13.51"/>
    <path class="cls-4" d="m39.19,66.5c9.49,0,17.19-6.05,17.19-13.51s-7.7-13.51-17.19-13.51-17.19,6.05-17.19,13.51,7.7,13.51,17.19,13.51"/>
    <path class="cls-4" d="m35.03,54.49c16.69,0,30.21-6.05,30.21-13.51s-13.53-13.51-30.21-13.51-30.21,6.05-30.21,13.51,13.53,13.51,30.21,13.51"/>
    <path class="cls-5" d="m4.86,83.93c-2.61-.02-4.71,2.05-4.71,4.64s2.07,4.64,4.61,4.66c2.6.02,4.69-2.06,4.69-4.66,0-2.58-2.03-4.63-4.6-4.64m13.93,7.74c3.43,0,6.2-2.74,6.22-6.17.02-3.44-2.81-6.28-6.25-6.26-3.39.02-6.2,2.85-6.19,6.24,0,3.41,2.8,6.19,6.21,6.19m23.3-12.46c-.02-4.3-3.48-7.73-7.77-7.71-4.29.02-7.75,3.48-7.75,7.75,0,4.29,3.55,7.82,7.84,7.78,4.27-.04,7.71-3.53,7.69-7.82m51.31-41.51v55.72H0V0h37.13c-.14.05-.27.13-.41.15-8.2,1.17-14.16,6.69-15.96,14.82-.12.54-.37.64-.85.7-6.5.79-11.91,5.82-13.22,12.21-.09.44-.42.93-.79,1.21C1.4,32.64-.6,37.27.42,42.88c1.04,5.69,4.55,9.42,10.14,10.98,1.72.48,3.57.45,5.42.66,2.33,12.17,16.57,17.97,26.94,10.58,6.37,4.94,13.39,6.35,20.92,3.22,7.51-3.13,11.48-9.09,12.48-17.11.21,0,.36,0,.51,0,7.09.45,13.42-3.71,15.75-10.38.36-1.02.56-2.1.83-3.15"/>
    <path class="cls-3" d="m72.05,21.3c-.67-1.57-1.64-2.9-2.88-4.02-4.49-4.1-10.98-4.4-15.89-.78-1.08.8-1.93.8-2.55,0-.63-.81-.37-1.71.74-2.51.61-.44,1.25-.83,1.87-1.25-.04-.13-.05-.22-.09-.3C49.13,2.69,36.11-.02,28.44,7.29c-3.57,3.41-5.18,7.6-4.94,12.52.06,1.17-.49,1.88-1.43,1.92-.96.04-1.58-.61-1.67-1.76-.03-.39-.04-.78-.06-1.22-3.33.48-6.05,1.94-8.1,4.52-2.4,3.02-3.22,6.46-2.5,10.26.22,1.13-.21,1.96-1.12,2.15-.98.2-1.69-.37-1.93-1.55-.08-.4-.16-.8-.26-1.3-.22.2-.38.33-.52.48-2.86,3.19-3.46,8.1-1.47,12,2.01,3.95,6.23,6.31,10.54,5.92,1.63-.15,3.14-.61,4.58-1.38.89-.48,1.79-.22,2.2.56.42.79.14,1.65-.73,2.15-.42.24-.86.47-1.32.61-.6.19-.69.52-.58,1.09,1.52,7.45,9.27,12.39,16.71,10.64,3.25-.76,5.9-2.46,7.99-5.06.74-.92,1.61-1.06,2.36-.45.74.61.76,1.49.04,2.41-.29.37-.59.74-.93,1.16,4.43,3.38,9.3,4.64,14.69,3.36,9.31-2.2,14.82-11.17,12.74-20.59-.26-1.17.17-2.01,1.13-2.21.9-.19,1.65.39,1.88,1.51.2.97.35,1.96.55,3.09,1.22-.05,2.45.03,3.62-.18,6.86-1.21,11.16-7.19,10.22-14.13-.88-6.56-7.31-11.42-13.83-10.38-1.39.22-2.73.75-4.07,1.2-.98.33-1.78.12-2.17-.7-.39-.81-.07-1.63.83-2.11.35-.18.71-.34,1.15-.55m21.36,16.39c-.27,1.05-.48,2.13-.83,3.15-2.33,6.67-8.66,10.82-15.75,10.38-.15-.01-.3,0-.51,0-1,8.02-4.96,13.98-12.48,17.11-7.52,3.13-14.55,1.72-20.92-3.22-10.37,7.39-24.61,1.59-26.94-10.58-1.84-.21-3.7-.19-5.42-.66-5.59-1.55-9.11-5.29-10.14-10.98-1.02-5.62.97-10.24,5.48-13.78.36-.28.69-.77.79-1.21,1.31-6.39,6.72-11.42,13.22-12.21.48-.06.73-.16.85-.7C22.56,6.84,28.52,1.33,36.72.15c.14-.02.28-.1.41-.15h3.82c.17.06.33.14.5.16,6.6,1.02,11.39,4.52,14.4,10.46.15.29.28.58.42.85.18-.01.27-.01.36-.03,7.68-1.88,14.66,1.33,18.21,8.43.28.57.61.54,1.08.47,6.94-.94,13.74,3,16.36,9.53.49,1.22.76,2.54,1.13,3.81v4.01Z"/>
    <path class="cls-3" d="m34.34,74.61c-2.56,0-4.64,2.06-4.66,4.6-.02,2.57,2.11,4.71,4.67,4.71,2.58,0,4.66-2.11,4.64-4.72-.02-2.57-2.07-4.6-4.65-4.59m7.76,4.6c.02,4.29-3.41,7.78-7.69,7.82-4.28.04-7.84-3.49-7.84-7.78,0-4.27,3.46-7.73,7.75-7.75,4.29-.02,7.75,3.41,7.77,7.71"/>
    <path class="cls-3" d="m21.9,85.47c0-1.73-1.4-3.13-3.11-3.12-1.7.01-3.12,1.46-3.1,3.15.03,1.68,1.39,3.04,3.08,3.05,1.74.02,3.12-1.35,3.12-3.08m-3.1,6.2c-3.42,0-6.21-2.79-6.21-6.19,0-3.38,2.8-6.21,6.19-6.23,3.44-.02,6.27,2.82,6.25,6.26-.02,3.43-2.8,6.17-6.22,6.17"/>
    <path class="cls-3" d="m6.36,88.54c-.02-.87-.73-1.53-1.6-1.5-.82.03-1.49.72-1.49,1.53,0,.84.73,1.57,1.57,1.56.85-.01,1.54-.73,1.52-1.59m-1.49-4.61c2.57.02,4.6,2.07,4.6,4.64,0,2.6-2.1,4.68-4.69,4.66-2.54-.02-4.61-2.12-4.61-4.66s2.09-4.66,4.7-4.64"/>
    <path class="cls-5" d="m34.34,74.61c2.58,0,4.63,2.02,4.65,4.59.02,2.61-2.05,4.72-4.63,4.72-2.56,0-4.69-2.14-4.67-4.71.02-2.55,2.1-4.6,4.66-4.6"/>
    <path class="cls-5" d="m21.9,85.47c0,1.74-1.38,3.1-3.12,3.08-1.69-.02-3.06-1.37-3.08-3.05-.03-1.69,1.4-3.14,3.1-3.15,1.71-.01,3.11,1.4,3.11,3.12"/>
    <path class="cls-5" d="m6.36,88.54c.02.86-.67,1.58-1.52,1.59-.84,0-1.57-.72-1.57-1.56,0-.81.67-1.5,1.49-1.53.87-.03,1.58.63,1.6,1.5"/>
  </g>
</svg>