<?xml version="1.0" encoding="UTF-8"?><svg id="Layer_2" xmlns="http://www.w3.org/2000/svg" xmlns:xlink="http://www.w3.org/1999/xlink" viewBox="0 0 95.66 98.65"><defs><style>.cls-1{fill:none;}.cls-2{clip-path:url(#clippath);}.cls-3{fill:#fff;}.cls-4{fill:#63c29c;}.cls-5{fill:#19171c;}.cls-6{clip-path:url(#clippath-1);}</style><clipPath id="clippath"><rect class="cls-1" width="95.66" height="98.65"/></clipPath><clipPath id="clippath-1"><rect class="cls-1" width="95.66" height="98.65"/></clipPath></defs><g id="Layer_1-2"><g><g class="cls-2"><rect class="cls-4" y="17.57" width="76.87" height="71.01" rx="7.32" ry="7.32"/></g><rect class="cls-3" x="34.7" y="24.01" width="13.91" height="12.59"/><rect class="cls-3" x="58.28" y="24.01" width="13.91" height="12.59"/><rect class="cls-3" x="34.7" y="44.42" width="13.91" height="12.59"/><rect class="cls-3" x="12.45" y="44.42" width="13.91" height="12.59"/><rect class="cls-3" x="12.45" y="64.57" width="13.91" height="12.59"/><g class="cls-6"><path class="cls-3" d="M70.25,97.22c13.23,0,23.95-10.72,23.95-23.95s-10.72-23.95-23.95-23.95-23.95,10.72-23.95,23.95,10.72,23.95,23.95,23.95"/><path class="cls-5" d="M24.71,74.96H13.56v-8.96h11.15v8.96Zm1.49-11.98H12.07c-.84,0-1.51,.67-1.51,1.51v11.93c0,.85,.66,1.51,1.51,1.51h14.13c.82,0,1.49-.66,1.49-1.51v-11.93c0-.84-.67-1.51-1.49-1.51"/><path class="cls-5" d="M41.9,62.99h-7.07c-.82,0-1.49,.67-1.49,1.51v11.93c0,.85,.67,1.51,1.49,1.51h5.97c.82,0,1.49-.66,1.49-1.51,0-.8-.66-1.46-1.49-1.46h-4.46v-8.96h5.57c.82,0,1.49-.71,1.49-1.51,0-.84-.67-1.51-1.49-1.51"/><path class="cls-5" d="M24.71,54.65H13.56v-8.97h11.15v8.97Zm1.49-11.98H12.07c-.84,0-1.51,.72-1.51,1.51v11.98c0,.8,.66,1.46,1.51,1.46h14.13c.82,0,1.49-.66,1.49-1.46v-11.98c0-.79-.67-1.51-1.49-1.51"/><path class="cls-5" d="M36.34,45.68h11.13v8.96h-11.13v-8.96Zm-1.51,11.93h14.13c.82,0,1.51-.66,1.51-1.46v-11.98c0-.79-.69-1.51-1.51-1.51h-14.13c-.82,0-1.49,.72-1.49,1.51v11.98c0,.8,.67,1.46,1.49,1.46"/><path class="cls-5" d="M57.61,47.99c.82,0,1.49-.71,1.49-1.51v-.8h12.64c.82,0,1.48-.66,1.48-1.51,0-.79-.66-1.51-1.48-1.51h-14.13c-.82,0-1.49,.72-1.49,1.51v2.31c0,.8,.67,1.51,1.49,1.51"/><path class="cls-5" d="M36.34,25.37h11.13v8.96h-11.13v-8.96Zm-1.51,11.98h14.13c.82,0,1.51-.67,1.51-1.51v-11.98c0-.8-.69-1.46-1.51-1.46h-14.13c-.82,0-1.49,.66-1.49,1.46v11.98c0,.84,.67,1.51,1.49,1.51"/><path class="cls-5" d="M59.09,25.37h11.13v8.96h-11.13v-8.96Zm-1.49,11.98h14.13c.82,0,1.48-.67,1.48-1.51v-11.98c0-.8-.66-1.46-1.48-1.46h-14.13c-.82,0-1.49,.66-1.49,1.46v11.98c0,.84,.67,1.51,1.49,1.51"/><path class="cls-5" d="M86.93,84.63l1.95,1.11c-1.62,2.44-3.68,4.53-6.1,6.12l-1.13-1.96c-.42-.71-1.31-.93-2.04-.53-.71,.4-.95,1.28-.53,1.99l1.11,1.95c-2.55,1.28-5.34,2.04-8.32,2.26v-2.26c0-.8-.69-1.46-1.51-1.46s-1.48,.66-1.48,1.46v2.26c-2.97-.22-5.79-.98-8.34-2.26l1.13-1.95c.4-.71,.16-1.6-.55-1.99-.71-.4-1.62-.18-2.05,.53l-1.13,1.96c-2.39-1.6-4.48-3.69-6.1-6.12l1.95-1.11c.71-.4,.95-1.33,.56-2.04-.42-.71-1.33-.97-2.04-.53l-1.95,1.11c-1.24-2.53-2.02-5.36-2.22-8.33h2.24c.82,0,1.49-.67,1.49-1.47,0-.84-.67-1.51-1.49-1.51h-2.24c.2-2.97,.98-5.77,2.22-8.34l1.95,1.1c.22,.14,.48,.22,.75,.22,.51,0,1-.26,1.29-.75,.4-.71,.15-1.64-.56-2.04l-1.95-1.11c1.61-2.44,3.7-4.52,6.1-6.12l1.13,1.95c.29,.48,.78,.75,1.31,.75,.24,0,.49-.09,.74-.22,.71-.4,.95-1.28,.55-2.04l-1.13-1.91c2.55-1.29,5.37-2.04,8.34-2.26v2.26c0,.8,.66,1.46,1.48,1.46s1.51-.66,1.51-1.46v-2.26c2.97,.22,5.77,.97,8.32,2.26l-1.11,1.91c-.42,.76-.18,1.64,.53,2.04,.25,.13,.49,.22,.75,.22,.51,0,1.02-.27,1.29-.75l1.13-1.95c2.42,1.6,4.48,3.68,6.1,6.12l-1.95,1.11c-.71,.4-.95,1.33-.53,2.04,.27,.49,.78,.75,1.29,.75,.24,0,.51-.09,.73-.22l1.95-1.1c1.27,2.57,2.04,5.37,2.24,8.34h-2.24c-.84,0-1.48,.67-1.48,1.51s.64,1.47,1.48,1.47h2.24c-.2,2.97-.97,5.81-2.24,8.33l-1.95-1.11c-.71-.44-1.62-.18-2.02,.53-.42,.71-.18,1.65,.53,2.04m-74.92-.89c-4.1,0-7.48-3.37-7.48-7.45V16.54H79.25V49.68c-2.77-1.02-5.74-1.64-8.89-1.64-13.95,0-25.28,11.36-25.28,25.33,0,3.68,.82,7.19,2.26,10.38H12.01Zm-.07-77.36v1.91c0,.8,.66,1.46,1.48,1.46s1.51-.66,1.51-1.46v-1.91h11.24v1.91c0,.8,.67,1.46,1.49,1.46s1.49-.66,1.49-1.46v-1.91h11.27v1.91c0,.8,.67,1.46,1.49,1.46s1.49-.66,1.49-1.46v-1.91h11.24v1.91c0,.8,.67,1.46,1.49,1.46s1.51-.66,1.51-1.46v-1.91h11.25v1.91c0,.8,.66,1.46,1.48,1.46s1.51-.66,1.51-1.46v-1.91c3.99,.04,7.23,3.19,7.38,7.18H4.55c.16-3.99,3.39-7.14,7.39-7.18M82.25,51.01V13.84c0-5.72-4.66-10.38-10.38-10.42V1.51C71.87,.66,71.18,0,70.36,0s-1.48,.66-1.48,1.51v1.91h-11.25V1.51C57.63,.66,56.96,0,56.12,0s-1.49,.66-1.49,1.51v1.91h-11.24V1.51C43.39,.66,42.72,0,41.9,0s-1.49,.66-1.49,1.51v1.91h-11.27V1.51C29.15,.66,28.48,0,27.66,0s-1.49,.66-1.49,1.51v1.91H14.94V1.51C14.94,.66,14.25,0,13.42,0s-1.48,.66-1.48,1.51v1.91c-5.75,.05-10.38,4.7-10.38,10.42v62.46c0,5.77,4.68,10.46,10.45,10.46H48.93c4.48,7.1,12.4,11.89,21.43,11.89,13.95,0,25.31-11.35,25.31-25.29,0-9.67-5.43-18.05-13.42-22.36"/><path class="cls-5" d="M70.36,60.28c-.82,0-1.48,.67-1.48,1.47v9l-7.81-4.48c-.71-.44-1.62-.18-2.04,.53-.4,.71-.16,1.64,.56,2.04l10.02,5.81c.24,.13,.49,.18,.76,.18s.53-.05,.75-.18c.47-.26,.75-.75,.75-1.28v-11.62c0-.8-.69-1.47-1.51-1.47"/></g></g></g></svg>