<svg xmlns="http://www.w3.org/2000/svg" viewBox="0 0 1500 276.03" xmlns:v="https://vecta.io/nano"><defs><clipPath id="A"><path d="M0 0h1500v276.03H0z" fill="none"/></clipPath></defs><g clip-path="url(#A)"><path d="M1180.88 163.8c1.12 5 2.99 9.57 5.61 13.71 2.62 4.13 6.02 7.51 10.21 10.12s9.27 3.91 15.26 3.91 11.25-1.3 15.37-3.91a32.31 32.31 0 0 0 10.1-10.12c2.62-4.13 4.49-8.7 5.61-13.71 1.12-5 1.68-9.97 1.68-14.9s-.56-9.9-1.68-14.9-2.99-9.57-5.61-13.71c-2.62-4.13-5.98-7.51-10.1-10.12s-9.24-3.92-15.37-3.92-11.07 1.31-15.26 3.92-7.6 5.98-10.21 10.12c-2.62 4.13-4.49 8.7-5.61 13.71-1.12 5-1.68 9.97-1.68 14.9s.56 9.9 1.68 14.9m82.47 35.36c0 3.37-1.05 5.78-3.14 7.24-2.1 1.47-4.12 2.19-6.06 2.19-2.1 0-4.15-.73-6.17-2.19s-3.03-3.88-3.03-7.24v-8.12h-.45c-4.34 6-9.24 10.43-14.7 13.28s-11.41 4.28-17.84 4.28c-8.38 0-15.82-1.64-22.33-4.94-6.51-3.29-12.01-7.71-16.5-13.27s-7.89-11.93-10.21-19.1-3.48-14.63-3.48-22.39 1.16-15.21 3.48-22.39c2.32-7.17 5.72-13.53 10.21-19.09s9.99-9.99 16.5-13.28 13.95-4.94 22.33-4.94c6.88 0 12.87 1.39 17.95 4.15 5.08 2.77 9.95 6.7 14.59 11.78h.45v-6.28c0-3.44 1.01-5.91 3.03-7.41 2.02-1.49 4.07-2.24 6.17-2.24 1.94 0 3.96.73 6.06 2.2 2.09 1.47 3.14 3.88 3.14 7.24v100.52zM1040.73 45.81c0-3.26.9-5.82 2.69-7.68 1.8-1.85 4.19-2.79 7.18-2.79s5.39.95 7.18 2.86c1.8 1.91 2.69 4.54 2.69 7.89v59.26h.45c1.35-1.8 2.99-3.66 4.94-5.61 1.94-1.94 4.26-3.7 6.96-5.27 2.69-1.57 5.72-2.84 9.09-3.82 3.37-.97 6.99-1.46 10.88-1.46 8.08 0 15.26 1.65 21.54 4.94a49.84 49.84 0 0 1 16.05 13.28c4.41 5.56 7.74 11.93 9.99 19.09 2.24 7.17 3.37 14.63 3.37 22.39s-1.12 15.22-3.37 22.39c-2.24 7.17-5.58 13.54-9.99 19.1s-9.76 9.99-16.05 13.27c-6.28 3.29-13.46 4.94-21.54 4.94-15.56 0-26.18-5.46-31.87-16.38h-.45v5.83c0 3.29-.9 5.87-2.69 7.74-1.8 1.87-4.19 2.81-7.18 2.81s-5.39-.93-7.18-2.78c-1.79-1.86-2.69-4.42-2.69-7.68V45.81zm19.41 117.99c1.12 5 2.99 9.57 5.61 13.71 2.62 4.13 6.02 7.51 10.21 10.12s9.27 3.91 15.26 3.91 11.25-1.3 15.37-3.91a32.31 32.31 0 0 0 10.1-10.12c2.62-4.13 4.49-8.7 5.61-13.71 1.12-5 1.68-9.97 1.68-14.9s-.56-9.9-1.68-14.9-3-9.57-5.61-13.71c-2.62-4.13-5.99-7.51-10.1-10.12-4.12-2.61-9.24-3.92-15.37-3.92s-11.07 1.31-15.26 3.92-7.59 5.98-10.21 10.12c-2.62 4.13-4.49 8.7-5.61 13.71-1.12 5-1.68 9.97-1.68 14.9s.56 9.9 1.68 14.9M919.1 99.52c0-3.22.9-5.74 2.69-7.57s4.19-2.75 7.18-2.75 5.39.91 7.18 2.74c1.79 1.82 2.69 4.34 2.69 7.54v61.66c0 20.26 9.2 30.39 27.6 30.39s27.6-10.13 27.6-30.39V99.48c0-3.21.9-5.72 2.69-7.54 1.8-1.82 4.19-2.74 7.18-2.74s5.39.92 7.18 2.75c1.8 1.83 2.69 4.35 2.69 7.57v62.54c0 8.48-1.35 15.69-4.04 21.62s-6.25 10.75-10.66 14.48c-4.42 3.73-9.46 6.4-15.15 8.01s-11.52 2.41-17.5 2.41-11.82-.8-17.5-2.41c-5.69-1.61-10.74-4.28-15.15-8.01s-7.97-8.56-10.66-14.48c-2.69-5.93-4.04-13.13-4.04-21.62V99.52zm-45.78 35.38c0-5.1-.82-9.47-2.47-13.12-1.65-3.64-3.78-6.6-6.39-8.86-2.62-2.26-5.58-3.93-8.87-5.03s-6.58-1.64-9.87-1.64-6.58.55-9.87 1.64a25.96 25.96 0 0 0-8.87 5.03c-2.62 2.26-4.75 5.21-6.39 8.86-1.65 3.64-2.47 8.02-2.47 13.12v63.41c0 3.21-.9 5.72-2.69 7.55-1.8 1.82-4.19 2.73-7.18 2.73s-5.39-.93-7.18-2.78c-1.8-1.86-2.69-4.42-2.69-7.68V45.81c0-3.26.9-5.82 2.69-7.68 1.8-1.85 4.19-2.79 7.18-2.79s5.39.95 7.18 2.86 2.69 4.54 2.69 7.9v58.36l.45.45c4.34-5.68 9.43-9.72 15.26-12.12 5.83-2.39 11.74-3.59 17.73-3.59 4.63 0 9.39.77 14.25 2.3 4.86 1.54 9.31 4.06 13.35 7.57s7.37 8.09 9.99 13.72 3.93 12.55 3.93 20.74v64.74c0 3.22-.9 5.74-2.69 7.57-1.8 1.83-4.19 2.74-7.18 2.74s-5.39-.91-7.18-2.73c-1.8-1.82-2.69-4.34-2.69-7.55v-63.41zM746.3 63.39c0-3.29.9-5.87 2.69-7.74 1.8-1.87 4.19-2.81 7.18-2.81s5.39.94 7.18 2.81c1.8 1.87 2.69 4.45 2.69 7.74V89.2h8.08c6.58 0 9.87 2.84 9.87 8.53s-3.29 8.53-9.87 8.53h-8.08v91.92c0 3.25-.9 5.8-2.69 7.64-1.8 1.84-4.19 2.77-7.18 2.77s-5.39-.92-7.18-2.77c-1.8-1.84-2.69-4.39-2.69-7.64v-91.92h-8.08c-6.58 0-9.87-2.84-9.87-8.53s3.29-8.53 9.87-8.53h8.08V63.39zm-114.79 100.4c1.12 5 2.99 9.57 5.61 13.71 2.62 4.13 6.02 7.51 10.21 10.12s9.27 3.91 15.26 3.91 11.25-1.3 15.37-3.91a32.31 32.31 0 0 0 10.1-10.12c2.62-4.13 4.49-8.7 5.61-13.71 1.12-5 1.68-9.97 1.68-14.9s-.56-9.9-1.68-14.9-2.99-9.57-5.61-13.71c-2.62-4.13-5.98-7.51-10.1-10.12s-9.24-3.92-15.37-3.92-11.07 1.31-15.26 3.92-7.6 5.98-10.21 10.12c-2.62 4.13-4.49 8.7-5.61 13.71-1.12 5-1.68 9.97-1.68 14.9s.56 9.9 1.68 14.9m82.47 35.36c0 3.37-1.05 5.78-3.14 7.24-2.1 1.47-4.12 2.19-6.06 2.19-2.1 0-4.15-.73-6.17-2.19s-3.03-3.88-3.03-7.24v-8.12h-.45c-4.34 6-9.24 10.43-14.7 13.28s-11.41 4.28-17.84 4.28c-8.38 0-15.82-1.64-22.33-4.94-6.51-3.29-12.01-7.71-16.5-13.27s-7.89-11.93-10.21-19.1-3.48-14.63-3.48-22.39 1.16-15.21 3.48-22.39c2.32-7.17 5.72-13.53 10.21-19.09s9.99-9.99 16.5-13.28 13.95-4.94 22.33-4.94c6.88 0 12.87 1.39 17.95 4.15 5.08 2.77 9.95 6.7 14.59 11.78h.45v-6.28c0-3.44 1.01-5.91 3.03-7.41 2.02-1.49 4.07-2.24 6.17-2.24 1.94 0 3.96.73 6.06 2.2 2.09 1.47 3.14 3.88 3.14 7.24v100.52zm-215.21-66c0-8.31-2.24-14.87-6.73-19.68s-10.77-7.22-18.85-7.22-14.33 2.41-18.74 7.22-6.62 11.37-6.62 19.68v65.16c0 3.21-.9 5.72-2.69 7.55-1.8 1.82-4.19 2.73-7.18 2.73s-5.39-.91-7.18-2.74-2.69-4.36-2.69-7.57V99.52c0-3.22.9-5.74 2.69-7.57 1.8-1.83 4.19-2.75 7.18-2.75s5.39.94 7.18 2.81c1.8 1.87 2.69 4.45 2.69 7.74v3.59l.45.45a108.56 108.56 0 0 1 4.15-4.83c1.57-1.72 3.55-3.29 5.95-4.71 2.39-1.42 5.2-2.62 8.42-3.59s7.07-1.46 11.56-1.46c5.83 0 11.63 1.43 17.39 4.28s10.88 8.01 15.37 15.47c4.34-6.14 9.35-10.97 15.04-14.49 5.68-3.51 12.87-5.27 21.54-5.27 4.64 0 9.39.77 14.25 2.3 4.86 1.54 9.31 4.06 13.35 7.57s7.37 8.09 9.99 13.72 3.93 12.55 3.93 20.74v64.74c0 3.22-.9 5.74-2.69 7.57-1.8 1.83-4.19 2.74-7.18 2.74s-5.39-.91-7.18-2.73c-1.8-1.82-2.69-4.34-2.69-7.55v-65.16c0-8.31-2.24-14.87-6.73-19.68s-10.77-7.22-18.85-7.22-14.33 2.41-18.74 7.22-6.62 11.37-6.62 19.68v65.16c0 3.21-.9 5.72-2.69 7.55-1.8 1.82-4.19 2.73-7.18 2.73s-5.39-.91-7.18-2.73c-1.8-1.82-2.69-4.34-2.69-7.55v-65.16zm-179.2 30.65c1.12 5 2.99 9.57 5.61 13.71 2.62 4.13 6.02 7.51 10.21 10.12s9.27 3.91 15.26 3.91 11.25-1.3 15.37-3.91a32.31 32.31 0 0 0 10.1-10.12c2.62-4.13 4.49-8.7 5.61-13.71 1.12-5 1.68-9.97 1.68-14.9s-.56-9.9-1.68-14.9-2.99-9.57-5.61-13.71c-2.62-4.13-5.99-7.51-10.1-10.12-4.12-2.61-9.24-3.92-15.37-3.92s-11.07 1.31-15.26 3.92-7.6 5.98-10.21 10.12c-2.62 4.13-4.49 8.7-5.61 13.71-1.12 5-1.68 9.97-1.68 14.9s.56 9.9 1.68 14.9m82.47 35.36c0 3.37-1.05 5.78-3.14 7.24-2.1 1.47-4.12 2.19-6.06 2.19-2.1 0-4.15-.73-6.17-2.19s-3.03-3.88-3.03-7.24v-8.12h-.45c-4.34 6-9.24 10.43-14.7 13.28s-11.41 4.28-17.84 4.28c-8.38 0-15.82-1.64-22.33-4.94-6.51-3.29-12.01-7.71-16.5-13.27s-7.89-11.93-10.21-19.1-3.48-14.63-3.48-22.39 1.16-15.21 3.48-22.39c2.32-7.17 5.72-13.53 10.21-19.09s9.99-9.99 16.5-13.28 13.95-4.94 22.33-4.94c6.88 0 12.87 1.39 17.95 4.15 5.08 2.77 9.95 6.7 14.59 11.78h.45v-6.28c0-3.44 1.01-5.91 3.03-7.41 2.02-1.49 4.07-2.24 6.17-2.24 1.94 0 3.96.73 6.06 2.2 2.09 1.47 3.14 3.88 3.14 7.24v100.52z" fill="#444"/><path d="M1254.87 230.92c1.05 0 1.99.24 2.83.72s1.52 1.13 2.03 1.97c.52.84.8 1.79.86 2.86h-11.44c.08-1.07.37-2.03.87-2.87.51-.85 1.18-1.51 2.02-1.97.84-.47 1.78-.7 2.83-.7m7.12 6.27c0-1.45-.31-2.75-.93-3.89s-1.47-2.04-2.55-2.67c-1.08-.64-2.29-.96-3.65-.96s-2.57.32-3.66.97-1.94 1.55-2.56 2.7-.93 2.46-.93 3.9.33 2.78.99 3.92 1.57 2.04 2.73 2.69 2.49.97 3.98.97c1.14 0 2.21-.21 3.19-.63s1.8-1.02 2.45-1.8l-.83-.94c-.55.69-1.25 1.21-2.08 1.56a6.88 6.88 0 0 1-2.7.53c-1.18 0-2.25-.25-3.19-.74a5.73 5.73 0 0 1-2.24-2.1c-.55-.91-.85-1.94-.89-3.1h12.85l.03-.4zm-22.34 7.64c1.2 0 2.29-.23 3.27-.7a5.93 5.93 0 0 0 2.39-2.05l-1.06-.77c-.54.74-1.2 1.3-1.99 1.67s-1.66.56-2.62.56c-1.16 0-2.21-.26-3.13-.79s-1.65-1.26-2.17-2.22c-.52-.95-.79-2.05-.79-3.29s.26-2.34.79-3.29a5.65 5.65 0 0 1 2.17-2.22c.93-.53 1.97-.79 3.13-.79.95 0 1.83.19 2.62.56s1.45.93 1.99 1.67l1.06-.77a5.83 5.83 0 0 0-2.39-2.04c-.98-.47-2.07-.7-3.27-.7-1.45 0-2.75.32-3.89.96s-2.04 1.53-2.69 2.69c-.65 1.15-.97 2.46-.97 3.93s.32 2.75.97 3.91a6.98 6.98 0 0 0 2.69 2.7c1.14.65 2.44.97 3.89.97m-18.4-1.17c-1.32 0-2.34-.28-3.06-.84-.73-.56-1.09-1.33-1.09-2.3s.33-1.67.99-2.2 1.72-.8 3.19-.8h5.09v2.8c-.44 1.09-1.09 1.92-1.96 2.49s-1.92.86-3.16.86m.8-13.99c-1.14 0-2.24.19-3.29.56s-1.95.89-2.69 1.56l.72 1.03c.63-.57 1.4-1.03 2.3-1.37.91-.34 1.85-.51 2.85-.51 1.45 0 2.55.36 3.31 1.09.75.73 1.13 1.78 1.13 3.18v1.2h-5.12c-1.95 0-3.36.39-4.25 1.16s-1.33 1.78-1.33 3.02.48 2.31 1.45 3.09c.96.78 2.27 1.17 3.93 1.17 1.28 0 2.37-.24 3.29-.73a4.98 4.98 0 0 0 2.09-2.05v2.66h1.37v-9.47c0-1.83-.5-3.22-1.49-4.16s-2.41-1.42-4.26-1.42m-16.88 13.88c-1.14 0-2.17-.27-3.07-.8-.91-.53-1.62-1.28-2.15-2.23s-.79-2.04-.79-3.26.26-2.31.79-3.26c.52-.95 1.24-1.7 2.15-2.23s1.93-.8 3.07-.8 2.17.27 3.09.8 1.64 1.28 2.16 2.23.79 2.04.79 3.26-.26 2.31-.79 3.26a5.79 5.79 0 0 1-2.16 2.23c-.92.53-1.95.8-3.09.8m.09-13.88c-1.33 0-2.54.32-3.62.96s-1.91 1.53-2.5 2.67v-3.52h-1.37v20.48h1.43v-8.95c.59 1.11 1.42 1.97 2.49 2.59s2.26.93 3.58.93c1.39 0 2.65-.32 3.78-.96s2.01-1.54 2.65-2.69.96-2.47.96-3.93-.32-2.78-.96-3.92-1.52-2.04-2.65-2.69-2.38-.97-3.78-.97m-17.39 15.16c1.87 0 3.32-.37 4.35-1.12 1.03-.74 1.54-1.74 1.54-2.98 0-.93-.25-1.67-.74-2.2s-1.1-.92-1.82-1.16-1.65-.46-2.82-.67l-2.45-.59c-.58-.18-1.07-.46-1.47-.83s-.6-.89-.6-1.56c0-.84.35-1.52 1.06-2.03s1.76-.77 3.15-.77c.82 0 1.62.11 2.4.34s1.48.56 2.09 1l.66-1.14c-.59-.44-1.35-.79-2.29-1.06a10.13 10.13 0 0 0-2.83-.4c-1.81 0-3.21.39-4.19 1.16s-1.47 1.75-1.47 2.93c0 .97.26 1.74.77 2.29.52.55 1.14.95 1.86 1.2.73.25 1.68.48 2.86.69l2.37.54c.57.17 1.05.44 1.45.8.39.36.59.86.59 1.49a2.38 2.38 0 0 1-1.07 2.06c-.71.5-1.83.74-3.33.74-1.05 0-2.05-.17-3.02-.51-.96-.34-1.75-.77-2.36-1.29l-.66 1.14c.61.55 1.46 1.01 2.55 1.37a10.85 10.85 0 0 0 3.43.54m-8.35-2.06c-.61.55-1.38.83-2.32.83s-1.61-.25-2.07-.76c-.47-.51-.7-1.25-.7-2.22v-9.61h4.75v-1.23h-4.75v-3.26h-1.43v3.26h-2.75v1.23h2.75v9.76c0 1.28.35 2.28 1.06 2.99.71.72 1.71 1.07 3 1.07.59 0 1.16-.09 1.7-.27s1-.44 1.36-.79l-.6-1zm-18.77-13.1c-1.37 0-2.57.28-3.58.84s-1.77 1.36-2.29 2.39v-9.41h-1.43v21.23h1.43v-7.95c0-1.77.5-3.19 1.52-4.23 1.01-1.05 2.39-1.57 4.15-1.57 1.52 0 2.71.44 3.56 1.32s1.27 2.16 1.27 3.83v8.61h1.43V236c0-2.04-.54-3.6-1.63-4.69s-2.57-1.63-4.43-1.63m-20.88 13.22c-1.16 0-2.21-.25-3.13-.76-.93-.51-1.65-1.21-2.17-2.12s-.79-1.94-.79-3.1.26-2.19.79-3.09 1.25-1.6 2.17-2.1c.93-.51 1.97-.76 3.13-.76s2.21.25 3.15.76a5.53 5.53 0 0 1 2.19 2.1c.53.9.79 1.93.79 3.09s-.26 2.2-.79 3.1c-.53.91-1.25 1.61-2.19 2.12-.94.5-1.98.76-3.15.76m6.15-13.1v3.38a6.19 6.19 0 0 0-2.55-2.57c-1.11-.61-2.35-.92-3.72-.92s-2.66.3-3.79.92c-1.13.61-2.03 1.47-2.67 2.57-.65 1.11-.97 2.36-.97 3.75s.32 2.64.97 3.75a6.85 6.85 0 0 0 2.67 2.59c1.13.62 2.4.93 3.79.93s2.57-.3 3.66-.89a6.31 6.31 0 0 0 2.55-2.52v2.52c0 1.98-.48 3.45-1.43 4.39s-2.42 1.42-4.41 1.42c-1.18 0-2.3-.19-3.35-.57s-1.95-.92-2.69-1.6l-.77 1.09c.74.74 1.72 1.33 2.95 1.75 1.22.42 2.52.63 3.89.63 2.42 0 4.23-.59 5.44-1.77 1.2-1.18 1.8-3.01 1.8-5.49v-13.33h-1.37zm-18.82-3.63a1.13 1.13 0 0 0 .83-.34c.23-.23.34-.5.34-.83s-.11-.6-.34-.81c-.23-.22-.5-.33-.83-.33s-.6.11-.83.34-.34.5-.34.83.11.6.34.82.5.33.83.33m-.72 18.57h1.43v-14.93h-1.43v14.93zm-9.64-11.67v-3.26h-1.37v14.93h1.43v-7.78c0-1.85.47-3.3 1.4-4.33.93-1.04 2.23-1.56 3.89-1.56l.34.03v-1.4c-1.39 0-2.57.29-3.55.87-.97.58-1.69 1.42-2.15 2.5m-13.5 10.41h-7.47v-8.27h7.47c1.95 0 3.42.33 4.42 1s1.5 1.71 1.5 3.12-.5 2.46-1.5 3.13c-1 .68-2.47 1.01-4.42 1.01m-.63-17.51c1.75 0 3.1.34 4.05 1.02.94.68 1.42 1.66 1.42 2.96s-.47 2.31-1.42 2.99c-.94.68-2.29 1.01-4.05 1.01h-6.84v-7.98h6.84zm3.6 8.44c1.03-.34 1.84-.91 2.45-1.69s.9-1.75.9-2.89c0-1.64-.61-2.9-1.82-3.79s-2.9-1.33-5.08-1.33h-8.35v20.03h8.93c2.44 0 4.28-.46 5.52-1.37 1.24-.92 1.86-2.22 1.86-3.92 0-1.37-.38-2.49-1.13-3.35s-1.84-1.42-3.27-1.69m-24.29-4.61l-5.98 13.36-5.98-13.36h-1.52l6.72 14.88-.8 1.8c-.44.97-.92 1.66-1.43 2.06s-1.13.6-1.86.6c-1.09 0-2.01-.39-2.78-1.17l-.72 1.09a4.11 4.11 0 0 0 1.53 1 5.33 5.33 0 0 0 1.93.34c1.03 0 1.92-.28 2.68-.83.75-.55 1.42-1.49 1.99-2.8l7.67-16.96h-1.46zm-22 13.76c-1.14 0-2.17-.27-3.07-.8-.91-.53-1.62-1.28-2.15-2.23s-.79-2.04-.79-3.26.26-2.31.79-3.26c.52-.95 1.24-1.7 2.15-2.23s1.93-.8 3.07-.8 2.17.27 3.09.8 1.64 1.28 2.16 2.23.79 2.04.79 3.26-.26 2.31-.79 3.26a5.79 5.79 0 0 1-2.16 2.23c-.92.53-1.95.8-3.09.8m.09-13.88c-1.32 0-2.51.31-3.58.93s-1.9 1.48-2.49 2.59v-9.7h-1.43v21.23h1.37v-3.52c.59 1.14 1.43 2.04 2.5 2.68 1.08.64 2.28.96 3.62.96s2.65-.32 3.78-.97a6.92 6.92 0 0 0 2.65-2.69c.64-1.14.96-2.45.96-3.92s-.32-2.78-.96-3.93-1.52-2.05-2.65-2.69-2.38-.96-3.78-.96m-28.32 13.88c-1.14 0-2.17-.27-3.08-.8s-1.62-1.28-2.15-2.23-.79-2.04-.79-3.26.26-2.31.79-3.26c.52-.95 1.24-1.7 2.15-2.23s1.93-.8 3.08-.8 2.17.27 3.07.8c.91.53 1.62 1.28 2.15 2.23s.79 2.04.79 3.26-.26 2.31-.79 3.26c-.52.95-1.24 1.7-2.15 2.23s-1.93.8-3.07.8m6.01-20.05v9.76a6.74 6.74 0 0 0-2.5-2.63c-1.06-.63-2.26-.94-3.59-.94s-2.65.32-3.78.96a6.79 6.79 0 0 0-2.65 2.69c-.64 1.15-.96 2.46-.96 3.93s.32 2.78.96 3.92 1.52 2.04 2.65 2.69c1.12.65 2.38.97 3.78.97s2.56-.31 3.63-.94 1.9-1.53 2.49-2.69v3.52h1.4v-21.23h-1.43zm-23.4 7.44c1.05 0 1.99.24 2.83.72s1.52 1.13 2.03 1.97.8 1.79.86 2.86h-11.44c.08-1.07.37-2.03.87-2.87.51-.85 1.18-1.51 2.02-1.97.84-.47 1.78-.7 2.83-.7m7.12 6.27c0-1.45-.31-2.75-.93-3.89s-1.47-2.04-2.55-2.67c-1.08-.64-2.29-.96-3.65-.96s-2.57.32-3.66.97-1.94 1.55-2.56 2.7-.93 2.46-.93 3.9.33 2.78.99 3.92 1.57 2.04 2.73 2.69 2.49.97 3.98.97c1.14 0 2.21-.21 3.19-.63s1.8-1.02 2.45-1.8l-.83-.94c-.55.69-1.25 1.21-2.08 1.56a6.88 6.88 0 0 1-2.7.53c-1.18 0-2.25-.25-3.19-.74-.94-.5-1.69-1.2-2.25-2.1-.55-.91-.85-1.94-.89-3.1h12.85l.03-.4zm-22.14-4.15v-3.26h-1.37v14.93h1.43v-7.78c0-1.85.47-3.3 1.4-4.33.93-1.04 2.23-1.56 3.89-1.56l.34.03v-1.4c-1.39 0-2.57.29-3.55.87-.97.58-1.69 1.42-2.15 2.5m-12.93-2.12c1.05 0 1.99.24 2.83.72s1.52 1.13 2.03 1.97.8 1.79.86 2.86h-11.44c.08-1.07.37-2.03.87-2.87.5-.85 1.18-1.51 2.02-1.97.84-.47 1.78-.7 2.83-.7m7.12 6.27c0-1.45-.31-2.75-.93-3.89s-1.47-2.04-2.55-2.67c-1.08-.64-2.29-.96-3.65-.96s-2.57.32-3.66.97-1.94 1.55-2.56 2.7-.93 2.46-.93 3.9.33 2.78.99 3.92 1.57 2.04 2.73 2.69 2.49.97 3.98.97c1.14 0 2.21-.21 3.19-.63s1.8-1.02 2.45-1.8l-.83-.94a5.17 5.17 0 0 1-2.07 1.56 6.88 6.88 0 0 1-2.7.53c-1.18 0-2.24-.25-3.19-.74-.94-.5-1.69-1.2-2.25-2.1-.55-.91-.85-1.94-.89-3.1h12.85l.03-.4zm-16.85-7.41l-5.04 13.3-5.06-13.3h-1.23l-5.09 13.33-4.98-13.33h-1.37l5.66 14.93h1.32l5.06-12.96 5.04 12.96h1.34l5.66-14.93h-1.32zm-31.5 13.76c-1.14 0-2.17-.27-3.07-.8-.91-.53-1.62-1.28-2.15-2.23s-.79-2.04-.79-3.26.26-2.31.79-3.26c.52-.95 1.24-1.7 2.15-2.23s1.93-.8 3.07-.8 2.17.27 3.08.8 1.62 1.28 2.15 2.23c.52.95.79 2.04.79 3.26s-.26 2.31-.79 3.26-1.24 1.7-2.15 2.23-1.93.8-3.08.8m0 1.29c1.41 0 2.68-.32 3.82-.97 1.13-.65 2.03-1.55 2.67-2.7.65-1.15.97-2.46.97-3.91s-.32-2.75-.97-3.9-1.54-2.06-2.67-2.7c-1.14-.65-2.41-.97-3.82-.97s-2.68.32-3.82.97-2.03 1.55-2.68 2.7-.97 2.46-.97 3.9.32 2.75.97 3.91c.65 1.15 1.54 2.05 2.68 2.7 1.13.65 2.41.97 3.82.97m-18.28-7.98h-5.72v-10.84h5.72c2.14 0 3.77.47 4.89 1.42 1.13.94 1.69 2.28 1.69 4.02s-.56 3.07-1.69 4.01-2.76 1.4-4.89 1.4m0-12.16h-7.18v20.03h1.46v-6.55h5.72c2.52 0 4.49-.6 5.92-1.79s2.15-2.84 2.15-4.94-.72-3.77-2.15-4.96-3.4-1.79-5.92-1.79" fill="#231f20"/><path d="M8.18 196.67c-3.39 5.27-4.55 9.3-4.94 10.34-8.51 22.8.06 48.49 22.08 59.48 21.29 10.61 46.81 3.34 59.51-16.09 18.17-27.8 55.32-36.6 79.78-17.6-24-23.56-46.75-39.55-60.7-45.87-32.72-14.81-66.36-14.54-87.49 1.77-3.02 2.33-6.15 4.71-8.25 7.98" fill="#63c29c"/><path d="M175.2 27.03c-16.93-33.97-65.93-34.41-83.08 0l-39.89 80.35c.07-.11 8.13-16.4 45.58-14.53 10.56.52 37.64.47 37.64.47 16.5-.98 27.77-7.72 37.32-19.39 18.82-23 2.43-46.9 2.43-46.9" fill="#f37167"/><path d="M264.08 207.02c-2.94-6.98-67.64-137.24-84.75-171.67 1.04 8.79 4.32 25.25-6.56 38.59-9.54 11.69-20.82 18.41-37.32 19.39 0 0-27.08.05-37.64-.47-37.44-1.87-45.5 14.41-45.58 14.52L8.17 196.67h0c19.75-23.9 58.35-26.67 95.74-9.75 13.79 6.24 36.17 21.95 59.86 45.05.64.48 11.7 10.62 18.71 18.42 18.85 20.97 38.23 26.7 59.51 16.09 22.03-10.98 31.5-37.11 22.09-59.48" fill="#1f376a"/></g></svg>