<?xml version="1.0" encoding="UTF-8"?><svg id="Layer_2" xmlns="http://www.w3.org/2000/svg" xmlns:xlink="http://www.w3.org/1999/xlink" viewBox="0 0 100.48 90.64"><defs><style>.cls-1{fill:none;}.cls-2{clip-path:url(#clippath);}.cls-3{fill:#63c29c;}.cls-4{fill:#231f20;}.cls-5{clip-path:url(#clippath-1);}</style><clipPath id="clippath"><rect class="cls-1" width="100.48" height="90.64"/></clipPath><clipPath id="clippath-1"><rect class="cls-1" width="100.48" height="90.64"/></clipPath></defs><g id="Layer_1-2"><g class="cls-2"><path class="cls-3" d="M13.64,48c-1.05,0-1.93,.84-1.97,1.89-.04,1.09,.85,2.01,1.94,2.02,1.09,0,1.99-.9,1.97-1.99-.02-1.05-.89-1.91-1.94-1.92m20.17,0h-6.92c-1.82,0-3.64-.02-5.46,.01-1.13,.02-1.93,.84-1.96,1.9-.03,1.09,.79,1.93,1.95,2.01,.23,.01,.45,0,.68,0,7.73,0,15.47,0,23.2,0,.33,0,.66,.02,.97-.03,.81-.14,1.49-.61,1.55-1.4,.05-.63-.16-1.44-.56-1.91-.32-.39-1.09-.54-1.67-.55-3.93-.05-7.86-.02-11.79-.02m-4.1,15.62c4.58,0,9.16,0,13.75,0,.88,0,1.76,.03,2.63-.02,1.1-.06,1.89-.94,1.86-1.99-.02-1.01-.8-1.81-1.86-1.9-.26-.02-.52-.01-.78-.01-10.33,0-20.67,0-31,0-.33,0-.66-.02-.97,.03-1.06,.16-1.79,1.13-1.66,2.17,.13,1.06,.97,1.71,2.24,1.72,5.26,0,10.53,0,15.79,0M6.18,82.55c1.42-3.04,2.02-6.05,1.61-9.24-.2-1.54-.66-2.87-1.76-4.09C2.23,64.99,.1,60.01,0,54.29c-.11-6.63,2.57-12.14,7.28-16.64,7.2-6.89,15.92-9.69,25.77-8.98,7.41,.53,13.95,3.25,19.3,8.48,9.95,9.72,9.69,24.61-.61,33.98-6.77,6.15-14.86,8.52-23.89,7.96-3.68-.23-7.28-.88-10.75-2.17-1.01-.38-1.8,0-2.52,.76-2.27,2.38-5.01,3.98-8.39,4.88"/></g><rect class="cls-3" x="8.45" y="41" width="42.28" height="28.09"/><g class="cls-5"><path class="cls-3" d="M54.59,15.4c-1.17,0-2.03,.84-2.04,2.01,0,1.17,.84,2.03,2.01,2.04,1.17,0,2.03-.84,2.04-2.01,0-1.17-.84-2.03-2.01-2.03m19.97,4.05c4.03,0,8.06,0,12.09,0,1.47,0,2.32-.75,2.32-2.02s-.84-2.02-2.32-2.02c-7.99,0-15.99,0-23.98,0-1.47,0-2.31,.75-2.31,2.02s.84,2.02,2.31,2.02c3.97,0,7.93,0,11.89,0m-12.64,11.7h21.83c1.01,0,2.01,0,3.02,0,1.38-.01,2.21-.79,2.2-2.04,0-1.24-.84-2-2.24-2-10.04,0-20.08,0-30.12-.01-.53,0-1.12-.08-1.59-.31-4.17-2-8.58-3.1-13.17-3.54-.19-.02-.37-.06-.71-.12,.11-.77,.18-1.5,.33-2.21,1.71-7.82,6.45-13.33,13.33-17.09C60.32,.79,66.27-.37,72.55,.1c8.43,.62,15.73,3.73,21.59,9.9,3.99,4.21,6.3,9.23,6.35,15.07,.05,5.66-1.83,10.78-5.65,14.95-2.29,2.51-2.49,5.32-2.17,8.32,.18,1.75,.78,3.45,1.21,5.24-.13-.02-.37-.03-.59-.1-2.67-.87-5.05-2.24-6.97-4.3-1.05-1.13-2.1-1.36-3.56-.81-3.11,1.19-6.38,1.68-9.68,1.94-.64,.05-.97-.15-1.05-.8-.85-7.29-4.32-13.15-9.76-17.95-.09-.08-.16-.19-.36-.43"/><path class="cls-3" d="M53.7,23.31l-2.56-8.34s13-7.66,18-6.66,23,3,23,4,2,14,1,17-20.86,7-20.86,7l-10.14-5s-5.44-3.69-6.44-4.31c-1-.63-2-3.69-2-3.69"/><path class="cls-4" d="M57.26,36.11c.2,.24,.26,.35,.36,.43,5.44,4.8,8.9,10.67,9.76,17.95,.08,.65,.41,.85,1.05,.8,3.31-.26,6.58-.74,9.68-1.94,1.45-.56,2.5-.32,3.56,.81,1.92,2.05,4.3,3.43,6.97,4.3,.22,.07,.46,.08,.59,.1-.43-1.79-1.03-3.49-1.21-5.24-.32-2.99-.13-5.81,2.17-8.32,3.81-4.17,5.69-9.29,5.65-14.96-.05-5.84-2.35-10.87-6.35-15.07-5.86-6.17-13.16-9.28-21.59-9.9-6.28-.47-12.22,.69-17.74,3.72-6.88,3.77-11.62,9.27-13.33,17.09-.15,.71-.22,1.44-.33,2.21,.34,.06,.52,.1,.71,.12,4.59,.43,9,1.53,13.17,3.53,.47,.23,1.06,.31,1.59,.31,10.04,.02,20.08,.01,30.12,.02,1.39,0,2.23,.76,2.24,2,0,1.25-.82,2.03-2.2,2.04-1.01,0-2.01,0-3.02,0h-21.83M10.11,86.18c3.38-.9,6.12-2.5,8.39-4.88,.72-.75,1.51-1.13,2.52-.76,3.47,1.29,7.07,1.94,10.74,2.17,9.03,.56,17.13-1.81,23.89-7.96,10.31-9.37,10.57-24.26,.61-33.98-5.35-5.23-11.89-7.95-19.3-8.48-9.85-.71-18.58,2.09-25.77,8.98-4.7,4.5-7.38,10.01-7.27,16.64,.09,5.73,2.22,10.71,6.03,14.93,1.1,1.22,1.56,2.55,1.76,4.09,.41,3.19-.18,6.19-1.61,9.24M0,55.34c.41-1.86,.67-3.77,1.26-5.57,2.21-6.74,6.66-11.74,12.54-15.52,5.31-3.42,11.14-5.37,17.44-5.85,.97-.07,1.24-.41,1.36-1.37,.78-6.44,3.65-11.86,8.27-16.35C46.87,4.83,54.17,1.71,62.48,1.1c10.94-.81,20.6,2.41,28.69,9.88,4.83,4.46,7.81,9.98,8.52,16.61,.02,.15,.1,.3,.15,.45v4.29c-.35,1.71-.59,3.45-1.06,5.13-1.14,4.07-3.23,7.63-6,10.81-.34,.39-.62,.93-.7,1.44-.58,3.79,.43,7.13,3,9.99,.06,.07,.13,.14,.2,.22,.6,.65,.87,1.37,.49,2.23-.39,.88-1.1,1.22-2.03,1.2-5.3-.12-9.96-1.91-13.95-5.4-.53-.46-.94-.5-1.62-.36-2.98,.63-5.98,1.14-8.98,1.68-.57,.1-1.15,.11-1.61,.16-.47,2.07-.75,4.07-1.37,5.97-2.81,8.52-8.66,14.33-16.67,18.06-7.34,3.42-15.05,4-22.95,2.59-1.75-.31-3.46-.85-5.21-1.21-.36-.07-.89,.07-1.16,.31-4,3.48-8.63,5.32-13.93,5.5-1,.03-1.8-.24-2.23-1.21-.41-.95,0-1.68,.63-2.37,2.59-2.83,3.64-6.16,3.08-9.96-.08-.51-.31-1.08-.65-1.46-3.87-4.42-6.31-9.48-6.96-15.35-.02-.22-.11-.43-.17-.65v-4.29Z"/><path class="cls-4" d="M33.64,67.25c-5.26,0-10.53,0-15.79,0-1.27,0-2.1-.66-2.24-1.72-.13-1.04,.6-2.01,1.66-2.17,.32-.05,.65-.03,.97-.03,10.33,0,20.67,0,31,0,.26,0,.52-.01,.78,.01,1.06,.09,1.83,.89,1.86,1.9,.03,1.05-.76,1.93-1.86,1.99-.88,.05-1.75,.02-2.63,.02-4.58,0-9.16,0-13.74,0"/><path class="cls-4" d="M37.73,51.63c3.93,0,7.86-.02,11.79,.02,.57,0,1.34,.16,1.67,.55,.4,.48,.61,1.28,.56,1.91-.06,.79-.74,1.26-1.55,1.4-.32,.06-.65,.03-.97,.03-7.73,0-15.47,0-23.2,0-.23,0-.46,0-.68,0-1.16-.07-1.98-.91-1.95-2,.03-1.05,.83-1.87,1.96-1.9,1.82-.03,3.64-.01,5.46-.01h6.92"/><path class="cls-4" d="M17.56,51.63c1.05,0,1.92,.87,1.94,1.92,.02,1.09-.88,2-1.97,1.99-1.09,0-1.97-.93-1.94-2.02,.03-1.05,.92-1.9,1.97-1.89"/><path class="cls-4" d="M69.91,24.41c-3.96,0-7.93,0-11.89,0-1.47,0-2.31-.75-2.31-2.02s.84-2.02,2.31-2.02c7.99,0,15.99,0,23.98,0,1.47,0,2.32,.75,2.32,2.02s-.84,2.02-2.32,2.02c-4.03,0-8.06,0-12.09,0"/><path class="cls-4" d="M49.93,20.36c1.17,0,2.01,.86,2.01,2.04,0,1.17-.87,2.01-2.04,2.01-1.17,0-2.01-.86-2.01-2.04,0-1.17,.86-2.01,2.04-2.01"/></g></g></svg>