<?xml version="1.0" encoding="UTF-8"?><svg id="Layer_2" xmlns="http://www.w3.org/2000/svg" xmlns:xlink="http://www.w3.org/1999/xlink" viewBox="0 0 61.74 74.08"><defs><style>.cls-1{fill:none;}.cls-2{clip-path:url(#clippath);}.cls-3{fill:#215560;}</style><clipPath id="clippath"><rect class="cls-1" width="61.74" height="74.08"/></clipPath></defs><g id="Layer_1-2"><g class="cls-2"><path class="cls-3" d="M23.36,57.68c.14,.02,.26,.04,.38,.04,4.73,0,9.46,0,14.18,.01,.42,0,.63-.12,.62-.56,0-.22,0-.43,.03-.65,.31-3.78,1.5-7.09,4.26-9.91,4.66-4.78,5.94-10.61,3.88-16.91-2.08-6.35-6.66-10.16-13.28-11.26-5.12-.85-9.73,.52-13.62,3.96-4.1,3.63-5.96,8.26-5.61,13.74,.26,4.03,1.78,7.57,4.66,10.38,2.23,2.17,3.55,4.71,4.06,7.71,.19,1.13,.29,2.28,.44,3.44m7.55,2.4c-2.77,0-5.55,0-8.32,0-1.23,0-1.51-.38-1.58-1.61-.09-1.56-.19-3.13-.48-4.66-.38-2.03-1.4-3.73-2.91-5.21-8.33-8.15-7.42-21.78,1.88-28.77,10.52-7.91,25.76-3.06,29.59,9.52,2.16,7.09,.6,13.53-4.56,18.82-2.77,2.84-3.62,6.12-3.72,9.83,0,.24,.01,.48,0,.72-.07,.96-.45,1.34-1.42,1.34-2.82,0-5.64,0-8.46,0"/><path class="cls-3" d="M30.82,63.66c-2.46,0-4.91-.01-7.37,.02-.25,0-.65,.28-.7,.49-.11,.45,.29,.59,.69,.61,.14,0,.29,0,.43,0,4.67,0,9.34,0,14.02,0,.22,0,.47,.04,.64-.05,.18-.1,.4-.33,.4-.5s-.2-.42-.38-.52c-.17-.1-.42-.05-.64-.05-2.36,0-4.72,0-7.08,0m-.05,3.48c-2.53,0-5.06,.02-7.59,0-1.41-.02-2.56-1.06-2.75-2.4-.19-1.41,.56-2.69,1.88-3.12,.4-.13,.85-.19,1.28-.19,4.84-.01,9.68-.02,14.53,0,2.29,0,3.74,1.84,3.04,3.8-.42,1.18-1.52,1.92-2.94,1.93-2.48,.01-4.96,0-7.44,0h0Z"/><path class="cls-3" d="M30.85,70.59c-1.66,0-3.33,0-4.99,0-.42,0-.9-.03-.89,.56,.02,.52,.46,.54,.86,.54h10.05c.4,0,.85-.03,.85-.55,0-.58-.47-.56-.9-.56-1.66,0-3.33,0-4.99,0m0,3.48c-1.78,0-3.57,.03-5.35,0-1.4-.03-2.49-.96-2.77-2.31-.26-1.24,.38-2.58,1.57-3.11,.45-.2,.98-.31,1.47-.31,3.4-.03,6.8-.03,10.2,0,1.85,0,3.14,1.23,3.12,2.89-.02,1.66-1.33,2.84-3.17,2.85-1.69,0-3.38,0-5.06,0h0Z"/><path class="cls-3" d="M12.69,5.13c.41,.33,.82,.53,1.03,.86,1.38,2.09,2.72,4.21,4.06,6.33,.44,.7,.31,1.4-.28,1.79-.6,.39-1.22,.21-1.7-.53-1.35-2.09-2.68-4.18-4.01-6.27-.29-.45-.47-.95-.12-1.41,.22-.29,.61-.46,1.02-.75"/><path class="cls-3" d="M29.71,5.1c0-1.23,0-2.46,0-3.69,0-.85,.46-1.4,1.13-1.41,.66,0,1.16,.56,1.16,1.39,.01,2.48,0,4.97,0,7.45,0,.87-.45,1.39-1.14,1.4-.69,0-1.15-.53-1.16-1.38-.01-1.25,0-2.51,0-3.76"/><path class="cls-3" d="M53.49,23.82c-.26-.22-.74-.42-.84-.74-.12-.37,.06-.85,.18-1.26,.04-.15,.28-.25,.45-.34,2.18-1.18,4.36-2.36,6.55-3.53,.75-.4,1.47-.24,1.78,.33,.32,.6,.07,1.27-.67,1.67-2.2,1.2-4.4,2.39-6.61,3.57-.21,.11-.45,.16-.84,.3"/><path class="cls-3" d="M9.21,22.33c0,1.21-.87,1.68-1.78,1.22-1.13-.58-2.24-1.22-3.36-1.83-1.08-.59-2.16-1.17-3.23-1.76-.81-.45-1.02-1-.67-1.64,.33-.61,1.02-.77,1.76-.38,2.18,1.17,4.37,2.35,6.53,3.57,.37,.21,.61,.66,.76,.83"/><path class="cls-3" d="M45.42,14.57c-.98-.03-1.51-.8-1.26-1.5,.08-.22,.21-.43,.34-.63,1.32-1.99,2.65-3.97,3.97-5.96,.08-.12,.16-.24,.25-.35,.44-.51,1.04-.6,1.54-.21,.52,.4,.6,.92,.27,1.47-.31,.52-.66,1.01-.99,1.51-1.1,1.64-2.18,3.3-3.3,4.92-.24,.34-.64,.58-.83,.74"/><path class="cls-3" d="M30.82,63.66c2.36,0,4.72,0,7.08,0,.22,0,.47-.04,.64,.05,.18,.1,.38,.34,.38,.52s-.22,.41-.4,.5c-.17,.09-.42,.05-.64,.05-4.67,0-9.34,0-14.02,0-.14,0-.29,0-.43,0-.4-.02-.79-.16-.69-.61,.05-.22,.45-.49,.7-.49,2.46-.04,4.91-.02,7.37-.02"/><path class="cls-3" d="M30.85,70.59c1.66,0,3.33,0,4.99,0,.42,0,.9-.02,.9,.56,0,.52-.45,.55-.85,.55h-10.05c-.4,0-.85-.03-.86-.55-.02-.59,.47-.56,.89-.56h4.99"/><path class="cls-3" d="M45.63,35.04c0,.06,0,.26,0,.45-.02,.72-.42,1.21-1.04,1.26-.65,.05-1.16-.39-1.25-1.13-.07-.57-.07-1.15-.15-1.73-.88-6.05-5.78-10.47-11.9-10.74-.1,0-.19,0-.29-.01-.79-.06-1.31-.53-1.29-1.18,.02-.66,.57-1.2,1.34-1.1,1.48,.18,3.01,.26,4.39,.74,5.91,2.08,9.28,6.3,10.13,12.52,.03,.26,.03,.53,.04,.92"/></g></g></svg>