<?xml version="1.0" encoding="UTF-8"?><svg id="Layer_2" xmlns="http://www.w3.org/2000/svg" xmlns:xlink="http://www.w3.org/1999/xlink" viewBox="0 0 99.11 99"><defs><style>.cls-1{fill:none;}.cls-2{clip-path:url(#clippath);}.cls-3{fill:#63c29c;}.cls-4{fill:#19171c;}</style><clipPath id="clippath"><rect class="cls-1" width="99.11" height="99"/></clipPath></defs><g id="Layer_1-2"><g class="cls-2"><path class="cls-3" d="M56.68,22.41c3.94,0,7.12-3.19,7.12-7.12s-3.19-7.12-7.12-7.12-7.12,3.19-7.12,7.12,3.19,7.12,7.12,7.12"/><path class="cls-3" d="M22.19,32.09c2.95,0,5.34-2.39,5.34-5.34s-2.39-5.34-5.34-5.34-5.34,2.39-5.34,5.34,2.39,5.34,5.34,5.34"/><path class="cls-3" d="M65.29,69.62c2.95,0,5.34-2.39,5.34-5.34s-2.39-5.34-5.34-5.34-5.34,2.39-5.34,5.34,2.39,5.34,5.34,5.34"/><path class="cls-3" d="M37.24,91.49c2.95,0,5.34-2.39,5.34-5.34s-2.39-5.34-5.34-5.34-5.34,2.39-5.34,5.34,2.39,5.34,5.34,5.34"/><path class="cls-4" d="M13.2,46.8c-5.62,0-10.2-4.58-10.2-10.2s4.57-10.19,10.2-10.19h3.79c.67,2.63,3.05,4.59,5.89,4.59s5.21-1.96,5.89-4.59h10.39c3.08,8.11,8.85,16.39,11.84,20.4H13.2Zm9.68-24.99c1.71,0,3.09,1.39,3.09,3.09s-1.39,3.09-3.09,3.09-3.09-1.39-3.09-3.09,1.39-3.09,3.09-3.09M54.05,3c7.69,0,13.95,6.26,13.95,13.95,0,9.7-10.4,24.23-13.95,28.9-3.55-4.67-13.95-19.2-13.95-28.9,0-7.69,6.26-13.95,13.95-13.95m11.67,62.52c-1.71,0-3.09-1.38-3.09-3.09s1.39-3.09,3.09-3.09,3.09,1.39,3.09,3.09-1.38,3.09-3.09,3.09m-27.29,15.77c1.7,0,3.09,1.39,3.09,3.09s-1.39,3.09-3.09,3.09-3.09-1.39-3.09-3.09,1.39-3.09,3.09-3.09M91.25,10.68h-11.75c-.83,0-1.5,.67-1.5,1.5s.67,1.5,1.5,1.5h11.75c2.68,0,4.86,2.18,4.86,4.86s-2.18,4.86-4.86,4.86h-21.28c.65-2.24,1.04-4.42,1.04-6.45C71,7.61,63.4,0,54.05,0s-16.95,7.61-16.95,16.95c0,2.03,.39,4.21,1.04,6.45h-9.38c-.68-2.63-3.05-4.59-5.89-4.59s-5.21,1.96-5.89,4.59h-3.92s-.03,0-.04,0C5.83,23.51,0,29.38,0,36.6s5.92,13.2,13.2,13.2h62.3c3.07,0,5.57,2.5,5.57,5.57s-2.5,5.57-5.57,5.57h-3.9c-.67-2.63-3.05-4.6-5.88-4.6s-5.21,1.96-5.89,4.6H28.36c-6.88,0-12.48,5.6-12.48,12.48s5.6,12.47,12.48,12.47h4.18c.67,2.64,3.05,4.6,5.89,4.6s5.21-1.96,5.89-4.6h14.31c2.79,0,5.05,2.27,5.05,5.06s-2.26,5.05-5.05,5.05h-16.62c-.83,0-1.5,.67-1.5,1.5s.67,1.5,1.5,1.5h16.62c4.44,0,8.06-3.62,8.06-8.05s-3.61-8.06-8.06-8.06h-14.31c-.67-2.63-3.04-4.6-5.89-4.6s-5.21,1.96-5.89,4.6h-4.18c-5.23,0-9.47-4.25-9.47-9.47s4.25-9.48,9.47-9.48h31.47c.67,2.64,3.05,4.6,5.89,4.6s5.21-1.96,5.88-4.6h3.9c4.72,0,8.57-3.84,8.57-8.57s-3.84-8.57-8.57-8.57h-18.4c2.99-4.01,8.76-12.28,11.84-20.4h22.3c4.33,0,7.86-3.53,7.86-7.86s-3.53-7.86-7.86-7.86"/><path class="cls-4" d="M49.18,17.1c0-2.69,2.19-4.87,4.87-4.87s4.87,2.18,4.87,4.87-2.19,4.87-4.87,4.87-4.87-2.18-4.87-4.87m12.75,0c0-4.34-3.53-7.87-7.88-7.87s-7.88,3.53-7.88,7.87,3.53,7.88,7.88,7.88,7.88-3.53,7.88-7.88"/></g></g></svg>