<?xml version="1.0" encoding="UTF-8"?><svg id="Layer_2" xmlns="http://www.w3.org/2000/svg" xmlns:xlink="http://www.w3.org/1999/xlink" viewBox="0 0 68.22 97.94"><defs><style>.cls-1,.cls-2,.cls-3{fill:none;}.cls-4{clip-path:url(#clippath);}.cls-5{fill:#63c29c;}.cls-6{fill:#19171c;}.cls-7{clip-path:url(#clippath-1);}.cls-2{stroke-width:1.16px;}.cls-2,.cls-3{stroke:#19171c;}.cls-3{stroke-width:1.17px;}</style><clipPath id="clippath"><rect class="cls-1" width="68.22" height="97.94"/></clipPath><clipPath id="clippath-1"><rect class="cls-1" width="68.22" height="97.94"/></clipPath></defs><g id="Layer_1-2"><g class="cls-4"><path class="cls-5" d="M13.64,35.99c4.09,0,7.41-3.32,7.41-7.41s-3.32-7.41-7.41-7.41-7.41,3.32-7.41,7.41,3.32,7.41,7.41,7.41"/><path class="cls-6" d="M20.74,8.9c0-.79,.68-1.46,1.5-1.46h7.42c.82,0,1.48-.66,1.48-1.5,0-1.63,1.32-2.95,2.97-2.95s2.97,1.32,2.97,2.95c0,.84,.66,1.5,1.47,1.5h7.42c.82,0,1.48,.66,1.48,1.46v5.94c0,.83-.66,1.5-1.48,1.5H22.24c-.81,0-1.5-.66-1.5-1.5v-5.94Zm46,77.9c-.82,0-1.47,.66-1.47,1.5v2.2c0,2.47-1.72,4.45-3.81,4.45H6.76c-2.09,0-3.81-1.98-3.81-4.45V17.84c0-2.47,1.72-4.44,3.81-4.44h11.03v1.45c0,2.47,1.98,4.45,4.45,4.45h23.74c2.44,0,4.45-1.98,4.45-4.45v-1.45h11.03c2.09,0,3.81,1.98,3.81,4.44v2.2c0,.84,.66,70.73,1.47,70.73s1.48-69.89,1.48-70.73v-2.2c0-4.1-3.04-7.44-6.76-7.44h-11.03v-1.5c0-2.43-2-4.41-4.45-4.41h-6.12C39.19,1.89,36.86,0,34.11,0s-5.09,1.89-5.75,4.49h-6.12c-2.47,0-4.45,1.98-4.45,4.41v1.5H6.76C3.02,10.4,0,13.74,0,17.84V90.5C0,94.59,3.02,97.94,6.76,97.94H61.46c3.72,0,6.76-3.35,6.76-7.45v-2.2c0-.84-.66-1.5-1.48-1.5"/><path class="cls-6" d="M45.98,28.58c0-.84-.66-1.5-1.5-1.5H23.71c-.82,0-1.48,.66-1.48,1.5s.66,1.5,1.48,1.5h20.76c.84,0,1.5-.7,1.5-1.5"/><path class="cls-6" d="M22.24,81.96c0,.84,.66,1.5,1.48,1.5h22.88c.81,0,1.48-.66,1.48-1.5,0-.79-.66-1.46-1.48-1.46H23.72c-.82,0-1.48,.66-1.48,1.46"/><path class="cls-6" d="M22.24,67.12c0,.84,.66,1.5,1.48,1.5h22.88c.81,0,1.48-.66,1.48-1.5,0-.79-.66-1.46-1.48-1.46H23.72c-.82,0-1.48,.66-1.48,1.46"/><path class="cls-6" d="M22.24,55.25c0,.84,.66,1.5,1.48,1.5h22.88c.81,0,1.48-.66,1.48-1.5,0-.79-.66-1.46-1.48-1.46H23.72c-.82,0-1.48,.66-1.48,1.46"/><path class="cls-6" d="M22.24,42.29c0,.84,.66,1.5,1.48,1.5h22.88c.81,0,1.48-.66,1.48-1.5,0-.79-.66-1.46-1.48-1.46H23.72c-.82,0-1.48,.66-1.48,1.46"/><path class="cls-6" d="M18.19,37.65c-.66-.49-1.59-.31-2.05,.35l-3.68,5.24-1.34-1.76c-.51-.66-1.43-.8-2.09-.26-.64,.48-.77,1.41-.29,2.07l2.58,3.38c.29,.36,.7,.57,1.17,.57h.02c.48-.04,.93-.26,1.21-.66l4.84-6.87c.46-.66,.31-1.58-.37-2.06"/><path class="cls-6" d="M18.19,50.6c-.66-.44-1.59-.31-2.05,.35l-3.68,5.24-1.34-1.76c-.51-.62-1.43-.75-2.09-.26-.64,.53-.77,1.45-.29,2.07l2.58,3.39c.29,.35,.7,.57,1.17,.57h.02c.48,0,.93-.22,1.21-.62l4.84-6.91c.46-.66,.31-1.59-.37-2.07"/><path class="cls-6" d="M18.19,63.95c-.66-.44-1.59-.31-2.05,.35l-3.68,5.29-1.34-1.77c-.51-.66-1.43-.79-2.09-.31-.64,.48-.77,1.45-.29,2.07l2.58,3.39c.29,.39,.7,.57,1.17,.57h.02c.48,0,.93-.22,1.21-.62l4.84-6.91c.46-.66,.31-1.59-.37-2.07"/><path class="cls-6" d="M16.14,77.68l-3.68,5.25-1.34-1.77c-.51-.66-1.43-.79-2.09-.3-.64,.48-.77,1.45-.29,2.11l2.58,3.35c.29,.35,.7,.61,1.17,.61h.02c.48-.05,.93-.26,1.21-.66l4.84-6.91c.46-.66,.31-1.59-.37-2.07-.66-.44-1.59-.31-2.05,.39"/></g><rect class="cls-6" x="65.29" y="21.08" width="2.92" height="68.03"/><rect class="cls-5" x="54.78" y="27.08" width="8.94" height="60.63"/><rect class="cls-3" x="52.52" y="25.21" width="8.32" height="59.75"/><g class="cls-7"><circle class="cls-2" cx="12.32" cy="27.08" r="7.33"/></g></g></svg>