<?xml version="1.0" encoding="UTF-8"?><svg id="Layer_2" xmlns="http://www.w3.org/2000/svg" xmlns:xlink="http://www.w3.org/1999/xlink" viewBox="0 0 81.14 76.43"><defs><style>.cls-1{fill:none;}.cls-2{clip-path:url(#clippath);}.cls-3{fill:#fff;}.cls-4{fill:#951a1d;}</style><clipPath id="clippath"><rect class="cls-1" width="81.14" height="76.43"/></clipPath></defs><g id="Layer_1-2"><g class="cls-2"><path class="cls-4" d="M40.53,66.88c2.61,.02,4.76-2.09,4.79-4.69,.03-2.58-2.11-4.75-4.71-4.79-2.55-.04-4.75,2.12-4.78,4.71-.03,2.59,2.1,4.75,4.71,4.77m4.79-30.84v-3.96c0-2.61,.03-5.23,0-7.84-.04-3.12-2.54-5.24-5.57-4.78-2.3,.35-3.92,2.37-3.93,4.93-.01,6.28,0,12.57,0,18.85,0,1.53-.03,3.06,0,4.59,.06,2.78,2.17,4.83,4.86,4.77,2.63-.06,4.61-2.14,4.63-4.93,.02-3.88,0-7.76,0-11.65m-4.81,40.36c-9.37,0-18.75-.02-28.12,0-3.91,.01-7.14-1.37-9.67-4.37-2.87-3.39-3.6-8.64-1.52-12.56,4.28-8.03,8.65-16.01,13-24,5.25-9.67,10.5-19.33,15.77-28.98C32.47,1.91,36.39-.34,41.62,.04c4.13,.3,7.32,2.39,9.3,6.01,9.53,17.43,18.99,34.89,28.5,52.33,2.12,3.88,2.38,7.8,.28,11.71-2.06,3.84-5.34,6.11-9.72,6.23-6.04,.18-12.09,.07-18.14,.07-3.78,0-7.55,0-11.33,0"/><path class="cls-3" d="M45.32,36.05c0,3.88,.02,7.76,0,11.65-.01,2.79-2,4.87-4.63,4.93-2.69,.06-4.79-2-4.86-4.77-.04-1.53,0-3.06,0-4.6,0-6.28,0-12.57,0-18.85,0-2.56,1.63-4.58,3.92-4.93,3.03-.46,5.53,1.66,5.57,4.78,.04,2.61,0,5.23,0,7.84v3.96"/><path class="cls-3" d="M40.53,66.88c-2.6-.02-4.74-2.18-4.71-4.77,.03-2.59,2.23-4.76,4.78-4.71,2.6,.04,4.73,2.21,4.71,4.79-.03,2.6-2.17,4.71-4.79,4.69"/></g></g></svg>