<?xml version="1.0" encoding="UTF-8"?><svg id="Layer_2" xmlns="http://www.w3.org/2000/svg" xmlns:xlink="http://www.w3.org/1999/xlink" viewBox="0 0 87.17 100.35"><defs><style>.cls-1,.cls-2{fill:none;}.cls-3{clip-path:url(#clippath);}.cls-4{fill:#fff;}.cls-5{fill:#63c29c;}.cls-6{fill:#19171c;}.cls-2{stroke:#fff;stroke-width:1.55px;}</style><clipPath id="clippath"><rect class="cls-1" width="87.17" height="100.35"/></clipPath></defs><g id="Layer_1-2"><rect class="cls-5" y="9.2" width="66.09" height="87.67"/><g class="cls-3"><path class="cls-6" d="M17.74,23.23h25.45c.81,0,1.46-.65,1.46-1.46s-.66-1.46-1.46-1.46H17.74c-.81,0-1.46,.65-1.46,1.46s.65,1.46,1.46,1.46"/><path class="cls-6" d="M26.35,33.55c0,.81,.65,1.46,1.46,1.46h31.09c.81,0,1.46-.65,1.46-1.46s-.66-1.46-1.46-1.46H27.81c-.81,0-1.46,.65-1.46,1.46"/><path class="cls-6" d="M54.39,43.87H27.81c-.81,0-1.46,.66-1.46,1.46s.65,1.46,1.46,1.46h26.58c.81,0,1.46-.66,1.46-1.46s-.66-1.46-1.46-1.46"/><path class="cls-6" d="M49.62,55.64H27.81c-.81,0-1.46,.66-1.46,1.46s.65,1.46,1.46,1.46h21.82c.81,0,1.46-.66,1.46-1.46s-.65-1.46-1.46-1.46"/><path class="cls-6" d="M35.02,67.47h-7.21c-.81,0-1.46,.65-1.46,1.46s.65,1.46,1.46,1.46h7.21c.81,0,1.46-.66,1.46-1.46s-.65-1.46-1.46-1.46"/><path class="cls-6" d="M34.7,79.67h-6.89c-.81,0-1.46,.66-1.46,1.46s.65,1.46,1.46,1.46h6.89c.81,0,1.46-.65,1.46-1.46s-.65-1.46-1.46-1.46"/><path class="cls-6" d="M19.42,32.08h-1.68c-.8,0-1.46,.65-1.46,1.46s.65,1.46,1.46,1.46h1.68c.81,0,1.46-.66,1.46-1.46s-.65-1.46-1.46-1.46"/><path class="cls-6" d="M19.42,43.87h-1.68c-.8,0-1.46,.66-1.46,1.46s.65,1.46,1.46,1.46h1.68c.81,0,1.46-.66,1.46-1.46s-.65-1.46-1.46-1.46"/><path class="cls-6" d="M19.42,55.64h-1.68c-.8,0-1.46,.66-1.46,1.46s.65,1.46,1.46,1.46h1.68c.81,0,1.46-.66,1.46-1.46s-.65-1.46-1.46-1.46"/><path class="cls-6" d="M19.42,67.47h-1.68c-.8,0-1.46,.65-1.46,1.46s.65,1.46,1.46,1.46h1.68c.81,0,1.46-.66,1.46-1.46s-.65-1.46-1.46-1.46"/><path class="cls-6" d="M19.42,79.67h-1.68c-.8,0-1.46,.66-1.46,1.46s.65,1.46,1.46,1.46h1.68c.81,0,1.46-.65,1.46-1.46s-.65-1.46-1.46-1.46"/><path class="cls-6" d="M53.43,68.97c-2.3,.32-6.22,1.75-6.66,7.96-.01,2.76,.33,5.08,1.03,6.91,.22,.58,.77,.94,1.36,.94,.17,0,.35-.03,.52-.09,.75-.29,1.13-1.13,.85-1.88-.57-1.5-.85-3.47-.84-5.77,.23-3.18,1.55-4.82,4.14-5.18,.8-.11,1.36-.85,1.25-1.64-.11-.8-.85-1.36-1.64-1.25"/><path class="cls-4" d="M56.24,21.16c-.33-.52-5.01-23.9,0-20.89,5.01,3.01,28.49,21.5,26.37,21.5s-25.99,0-26.37-.61"/><path class="cls-4" d="M64.72,96.32c-.77,.33-6.19,2.53-8.87,2.75-2.69,.22-4.21,.88-6.65-.66-2.44-1.54-5.17-2.86-5.61-4.73-.44-1.87-2.49-10.24-2.49-10.24l-.75-7.82s2.25-8.81,2.69-8.92c.44-.11,6.83-3.63,8.04-3.52s6.81,.33,9.24,.77c2.42,.44,3.71,1.32,5.76,.99,2.05-.33,5.9-1.98,5.9-1.98l3.19,35-6.93,.88-3.74-1.98"/><path class="cls-4" d="M62.63,49.53c0-.44-.88-1.38,0-3.52,.88-2.15,.11-4.07,2.31-4.84,2.2-.77,4.84-1.76,4.84-1.76,0,0,4.18,9.58,2.86,10.13s-2.86,3.83-5.61,2.63c-2.75-1.2-4.4-2.63-4.4-2.63"/><path class="cls-6" d="M76.72,96.77c-5.5,2.05-11.59-1.37-11.65-1.4-.22-.13-.47-.19-.72-.19-.22,0-.45,.05-.66,.16-.09,.04-8.65,4.25-14.84,.41-4.55-2.82-6.83-9.31-6.78-19.19,.37-5.09,2.11-8.65,5.17-10.59,6.33-4.01,16.48-.15,16.58-.11,.17,.06,.34,.09,.52,.1h.01s.04,0,.07,0c.06,0,.1-.03,.16-.04,.09-.02,.18-.02,.27-.05,.13-.05,12.03-4.21,17.79,1.25-1.6,.09-3,.62-4.19,1.56-3.34,2.66-3.85,7.83-3.85,10.67,0,3.47,1.34,6.6,3.68,8.6,1.44,1.23,3.18,1.94,5.03,2.09-1.61,3.45-3.82,5.71-6.58,6.74M6.63,91.92V6.9H53.68v14.87c0,.8,.66,1.46,1.46,1.46h14.87v13.91c-3.17,.95-5.83,2.59-7.51,4.81-1.97,2.6-2.33,5.68-1.06,8.76-.85,.97-1.5,2.13-1.87,3.36-.98-.58-1.92-.96-2.68-1.17-.78-.22-1.57,.25-1.78,1.02-.21,.78,.24,1.58,1.02,1.79,.23,.07,5.11,1.5,6.44,6.66-3.75-1.04-11.27-2.43-16.88,1.11-3.89,2.46-6.09,6.78-6.53,12.95-.03,6.44,.89,11.6,2.74,15.47H6.63ZM67.95,20.31h-11.35V8.96l11.35,11.35Zm11.83,19c-1.96,3.72-7.41,12.23-15.58,10.47-.97-2.2-.76-4.23,.62-6.06,2.65-3.49,8.74-5.23,14.96-4.41m-9.77,22.35c-1.78,.25-3.33,.62-4.43,.92-.52-2.82-1.86-4.97-3.43-6.52,.13-1.27,.67-2.48,1.54-3.44,.92,.19,1.82,.31,2.69,.31,1.27,0,2.48-.21,3.63-.55v9.28Zm15.5,25.36c-.07,0-.29,.02-.36,.03-1.89,.3-3.61-.16-4.97-1.33-1.67-1.43-2.66-3.81-2.66-6.38,0-3.94,1-7,2.74-8.39,1.19-.95,2.76-1.18,4.79-.71,.23,.05,.43,.05,.59,.05,.51,0,1.01-.23,1.29-.66,.28-.44,.31-.99,.07-1.45-2.96-5.83-8.93-7.03-14.07-6.8v-10.25c5.15-2.86,8.77-8.55,10.35-12.38,.17-.4,.14-.85-.05-1.24-.2-.38-.56-.66-.99-.75-3.18-.69-6.38-.75-9.31-.29v-14.71s-.02-.06-.02-.1c0-.13-.03-.25-.07-.37-.02-.05-.03-.09-.05-.14-.07-.16-.16-.3-.29-.43L56.17,4.41c-.13-.13-.27-.22-.43-.29-.04-.02-.09-.03-.13-.05-.12-.04-.25-.07-.38-.08-.03,0-.06-.02-.09-.02H5.17c-.81,0-1.46,.65-1.46,1.46V93.38c0,.8,.65,1.46,1.46,1.46H43.64c1.04,1.38,2.26,2.52,3.66,3.38,6.5,4.03,14.59,1.08,17,.04,1.4,.68,4.74,2.08,8.58,2.08,1.56,0,3.2-.23,4.83-.83,4.14-1.53,7.23-5.08,9.17-10.55,.16-.45,.09-.95-.19-1.34-.27-.38-.72-.61-1.18-.61"/></g><rect class="cls-4" x="10.02" y="12.44" width="41.27" height="5.49"/><rect class="cls-2" x="10.02" y="12.44" width="41.27" height="5.49"/></g></svg>