<?xml version="1.0" encoding="UTF-8"?><svg id="Layer_2" xmlns="http://www.w3.org/2000/svg" xmlns:xlink="http://www.w3.org/1999/xlink" viewBox="0 0 94.88 95.01"><defs><style>.cls-1{fill:none;}.cls-2{clip-path:url(#clippath);}.cls-3{fill:#fff;}.cls-4{fill:#63c29c;}.cls-5{fill:#19171c;}</style><clipPath id="clippath"><rect class="cls-1" width="94.88" height="95.01"/></clipPath></defs><g id="Layer_1-2"><rect class="cls-4" x="4.77" y="18.67" width="90.11" height="76.34"/><g class="cls-2"><path class="cls-3" d="M46.22,69.34c10.05,0,18.21-8.15,18.21-18.2s-8.15-18.2-18.21-18.2-18.2,8.15-18.2,18.2,8.15,18.2,18.2,18.2"/><path class="cls-5" d="M89.63,89.62H2.81V16.8H89.63V89.62ZM2.81,2.79H89.63V14.01H2.81V2.79ZM91.03,0H1.41C.64,0,0,.63,0,1.38V91.03c0,.75,.64,1.37,1.41,1.37H91.03c.77,0,1.39-.62,1.39-1.37V1.38C92.42,.63,91.8,0,91.03,0"/><path class="cls-5" d="M82.69,7.4c-.27,.25-.42,.62-.42,.99s.14,.71,.42,1c.25,.25,.62,.42,.98,.42,.37,0,.73-.17,1-.42,.25-.25,.4-.62,.4-1s-.15-.75-.4-.99c-.52-.5-1.48-.5-1.97,0"/><path class="cls-5" d="M75.98,6.99c-.77,0-1.41,.62-1.41,1.41s.64,1.41,1.41,1.41,1.39-.62,1.39-1.41-.62-1.41-1.39-1.41"/><path class="cls-5" d="M67.27,7.44c-.25,.21-.39,.58-.39,.96s.15,.71,.39,1c.27,.25,.64,.42,1,.42,.37,0,.73-.17,1-.42,.25-.25,.4-.62,.4-1s-.15-.75-.4-.99c-.52-.5-1.45-.5-2,.04"/><path class="cls-5" d="M46.22,37.78c8.5,0,15.4,6.94,15.4,15.42s-6.9,15.42-15.4,15.42-15.4-6.9-15.4-15.42,6.9-15.42,15.4-15.42m0,33.63c10.04,0,18.2-8.19,18.2-18.21s-8.17-18.2-18.2-18.2-18.2,8.19-18.2,18.2,8.17,18.21,18.2,18.21"/><path class="cls-5" d="M43.31,46.85l8.81,6.36-8.81,6.37v-12.72Zm-2.04,16.71c.21,.12,.42,.17,.65,.17,.27,0,.56-.08,.81-.25l12.61-9.14c.35-.25,.58-.67,.58-1.12s-.23-.87-.58-1.12l-12.61-9.1c-.42-.29-.98-.37-1.46-.12-.48,.25-.77,.71-.77,1.25v18.21c0,.54,.29,.99,.77,1.25"/><path class="cls-5" d="M30.82,29.39h16.79c.77,0,1.39-.63,1.39-1.38,0-.79-.62-1.41-1.39-1.41H30.82c-.79,0-1.41,.63-1.41,1.41s.62,1.38,1.41,1.38"/><path class="cls-5" d="M57.42,29.39h25.21c.77,0,1.39-.63,1.39-1.38,0-.79-.62-1.41-1.39-1.41h-25.21c-.77,0-1.39,.63-1.39,1.41s.62,1.38,1.39,1.38"/><path class="cls-5" d="M9.81,29.39h11.2c.77,0,1.39-.63,1.39-1.38,0-.79-.62-1.41-1.39-1.41H9.81c-.77,0-1.39,.63-1.39,1.41s.62,1.38,1.39,1.38"/><path class="cls-5" d="M67.23,42.02h8.4c.77,0,1.39-.66,1.39-1.41,0-.79-.62-1.41-1.39-1.41h-8.4c-.79,0-1.41,.63-1.41,1.41s.62,1.41,1.41,1.41"/><path class="cls-5" d="M9.81,42.02h15.4c.77,0,1.39-.66,1.39-1.41,0-.79-.62-1.41-1.39-1.41H9.81c-.77,0-1.39,.63-1.39,1.41s.62,1.41,1.39,1.41"/><path class="cls-5" d="M82.63,51.83h-12.59c-.77,0-1.41,.58-1.41,1.37s.65,1.41,1.41,1.41h12.59c.77,0,1.39-.62,1.39-1.41s-.62-1.37-1.39-1.37"/><path class="cls-5" d="M9.81,54.62h12.59c.77,0,1.39-.62,1.39-1.41s-.62-1.37-1.39-1.37H9.81c-.77,0-1.39,.58-1.39,1.37s.62,1.41,1.39,1.41"/></g></g></svg>